<svg width="604" height="364" viewBox="0 0 604 364" fill="none" xmlns="http://www.w3.org/2000/svg">
<g clip-path="url(#clip0_9_126)">
<path d="M41.7548 341.553L77.3772 290.271L41.7367 347.131L41.7159 352.966C39.1756 352.945 36.6609 352.862 34.1719 352.718C34.1606 351.393 37.1883 278.5 37.0596 277.181C37.2353 277.131 37.3339 270.287 37.4036 269.988L0.188599 213.948L37.4436 264.684L37.5547 266.183L39.7648 209.55L7.77452 151.556L40.0179 199.6C40.0298 198.829 41.544 82.5484 41.5589 81.8309C41.568 82.212 42.2629 174.367 42.2681 174.756L72.863 137.662L42.2387 182.726L42.0823 233.413L70.4741 184.398C35.0414 255.878 42.8829 230.865 41.9779 269.048L83.2187 200.8L41.9426 278.881L41.7548 341.553Z" fill="#D0CDE1"/>
<path d="M586.721 348.515L601.566 327.145L586.713 350.84L586.705 353.271C585.646 353.262 584.598 353.228 583.561 353.168C583.556 352.616 584.818 322.24 584.764 321.69C584.838 321.669 584.879 318.817 584.908 318.692L569.399 295.339L584.924 316.482L584.971 317.107L585.892 293.507L572.561 269.339L585.997 289.36C586.002 289.039 586.633 240.582 586.639 240.283C586.643 240.442 586.933 278.845 586.935 279.007L599.685 263.549L586.923 282.328L586.858 303.451L598.689 283.025C583.923 312.812 587.191 302.389 586.814 318.301L604 289.86L586.799 322.398L586.721 348.515Z" fill="#D0CDE1"/>
<path d="M301.013 364C467.257 364 602.025 358.71 602.025 352.184C602.025 345.658 467.257 340.367 301.013 340.367C134.768 340.367 0 345.658 0 352.184C0 358.71 134.768 364 301.013 364Z" fill="#D0CDE1"/>
<path d="M447.026 139.563H103.333V344.87H447.026V139.563Z" fill="#3F3D56"/>
<path d="M188.391 139.563C188.04 161.167 179.228 181.768 163.857 196.922C148.485 212.076 127.784 220.57 106.219 220.573C105.253 220.573 104.293 220.556 103.333 220.522V139.563H188.391Z" fill="#FFD452"/>
<path d="M291.992 344.869H259.304C260.534 341.518 262.76 338.625 265.683 336.582C268.606 334.539 272.084 333.443 275.648 333.443C279.212 333.443 282.69 334.539 285.613 336.582C288.535 338.625 290.762 341.518 291.992 344.869Z" fill="#FFD452"/>
<path d="M447.026 238.674V307.828C438.166 307.394 429.811 303.562 423.693 297.125C417.575 290.688 414.162 282.14 414.162 273.251C414.162 264.362 417.575 255.814 423.693 249.377C429.811 242.94 438.166 239.108 447.026 238.674Z" fill="#FFD452"/>
<path d="M383.887 214.166H167.068C161.475 214.166 156.942 218.708 156.942 224.312V224.312C156.942 229.915 161.475 234.458 167.068 234.458H383.887C389.479 234.458 394.013 229.915 394.013 224.312C394.013 218.708 389.479 214.166 383.887 214.166Z" fill="white"/>
<path d="M383.887 254.153H167.068C161.475 254.153 156.942 258.695 156.942 264.299V264.299C156.942 269.902 161.475 274.444 167.068 274.444H383.887C389.479 274.444 394.013 269.902 394.013 264.299C394.013 258.695 389.479 254.153 383.887 254.153Z" fill="white"/>
<path d="M383.887 294.139H321.021C315.429 294.139 310.895 298.682 310.895 304.285C310.895 309.889 315.429 314.431 321.021 314.431H383.887C389.479 314.431 394.013 309.889 394.013 304.285C394.013 298.682 389.479 294.139 383.887 294.139Z" fill="white"/>
<path d="M501.53 63.088C501.53 63.088 510.981 66.7705 511.506 78.8701C512.031 90.9697 508.88 124.638 508.88 124.638C508.88 124.638 520.432 141.472 511.506 146.207C502.58 150.942 501.53 127.269 501.53 127.269L491.029 77.2919C491.029 77.2919 497.329 62.5619 501.53 63.088Z" fill="#A0616A"/>
<path d="M404.921 102.017C404.921 102.017 382.344 116.747 381.294 105.174C380.244 93.6001 388.119 48.358 388.119 48.358C388.119 48.358 389.169 28.8933 400.195 33.628C411.221 38.3627 397.045 54.6708 397.045 54.6708L398.62 91.4958L409.121 90.9697L404.921 102.017Z" fill="#A0616A"/>
<path d="M441.149 115.695C441.149 115.695 371.843 89.9176 375.518 119.904C379.194 149.89 397.045 187.767 397.045 187.767L403.346 197.762H416.472L408.071 143.577C408.071 143.577 437.999 160.411 446.925 157.781C446.925 157.781 458.476 235.113 462.676 240.9C466.877 246.687 474.227 316.654 474.227 316.654L481.053 325.071H494.179V206.705C494.179 206.705 516.756 133.055 499.43 129.373C482.103 125.69 441.149 115.695 441.149 115.695Z" fill="#2F2E41"/>
<path d="M401.771 190.923C401.771 190.923 398.62 185.136 393.37 190.923C388.119 196.71 375.518 203.549 375.518 203.549C375.518 203.549 348.216 209.862 370.268 215.122C392.32 220.383 394.945 215.122 394.945 215.122C394.945 215.122 398.62 216.174 401.771 217.227C404.921 218.279 425.398 214.596 425.398 211.44C425.398 208.283 418.446 189.42 415.621 192.276C412.797 195.132 401.771 190.923 401.771 190.923Z" fill="#2F2E41"/>
<path d="M482.059 319.864C482.059 319.864 474.318 313.476 472.496 315.301C470.674 317.126 461.111 329.446 461.111 329.446C461.111 329.446 435.61 349.065 458.834 352.259C482.059 355.453 480.693 346.784 480.693 346.784H487.979C488.89 346.784 501.185 341.309 500.73 339.027C500.275 336.746 494.81 318.143 492.988 319.46C491.167 320.776 482.059 319.864 482.059 319.864Z" fill="#2F2E41"/>
<path d="M411.747 43.0973C421.606 43.0973 429.598 35.0893 429.598 25.2109C429.598 15.3325 421.606 7.32446 411.747 7.32446C401.887 7.32446 393.895 15.3325 393.895 25.2109C393.895 35.0893 401.887 43.0973 411.747 43.0973Z" fill="#A0616A"/>
<path d="M424.348 23.1066C424.348 23.1066 437.999 34.6801 447.45 34.6801C456.901 34.6801 433.799 56.249 433.799 56.249L413.322 37.8366L424.348 23.1066Z" fill="#A0616A"/>
<path d="M429.598 56.249L429.189 52.1045C429.189 52.1045 439.574 33.628 442.724 32.0498C445.875 30.4715 447.975 30.4716 447.975 30.4716C447.975 30.4716 458.476 19.4241 470.027 25.2108C481.578 30.9976 508.88 67.8226 508.88 67.8226C508.88 67.8226 489.454 69.4008 492.079 84.6568C492.079 84.6568 511.506 134.634 506.255 135.16C501.005 135.686 485.253 132.003 468.977 139.368C452.7 146.733 445.35 141.999 445.35 141.999L436.949 114.643C436.949 114.643 421.197 105.7 421.722 97.8086L398.883 108.067L400.983 88.6023L414.897 72.5572C414.897 72.5572 412.272 70.4529 429.598 56.249Z" fill="#575A89"/>
<path d="M395.325 27.1446C394.616 27.9347 393.727 28.5415 392.733 28.9135C391.716 29.2008 390.435 28.8485 390.03 27.871L390.785 26.8866L388.522 25.4777L389.508 24.3185L387.685 22.3354L389.124 21.1919L386.385 19.2292C389.935 13.4253 393.774 7.54873 399.379 3.7013C404.983 -0.146118 412.814 -1.51324 418.556 2.1259C421.537 4.01529 423.645 7.01407 425.333 10.117C428.729 16.3573 431.722 22.4402 432.164 29.5339C430.031 27.4527 426.917 26.2799 424.784 24.1987C423.839 23.1945 422.769 22.3168 421.6 21.5874C419.369 20.3269 416.699 20.2154 414.202 19.6468C412.102 19.1686 410.739 18.2202 409.15 16.8643C407.26 15.2513 407.183 15.8749 405.274 17.691C401.96 20.8444 398.644 23.9956 395.325 27.1446Z" fill="#2F2E41"/>
</g>
<defs>
<clipPath id="clip0_9_126">
<rect width="604" height="364" fill="white"/>
</clipPath>
</defs>
</svg>
