<svg width="604" height="340" viewBox="0 0 604 340" fill="none" xmlns="http://www.w3.org/2000/svg">
<g clip-path="url(#clip0_7_2)">
<path opacity="0.1" d="M336.274 46.372C301.427 46.1719 268.026 37.2733 236.093 27.4186C204.16 17.5639 172.511 6.58649 138.381 1.76199C116.431 -1.32837 91.4164 -1.23388 74.0485 9.31C57.3368 19.4593 52.2649 36.4006 49.7012 52.0692C47.7659 63.8581 46.7648 76.2417 53.1047 87.0857C57.5037 94.6115 65.1393 100.842 70.4948 108.023C89.1196 133.007 77.1684 164.661 58.26 189.957C49.362 201.823 39.0402 213.19 32.2777 225.751C25.5152 238.313 22.5955 252.603 29.0799 265.092C35.5088 277.476 50.3352 286.536 66.3072 292.778C98.7517 305.445 136.691 308.374 173.64 309.658C255.452 312.504 337.531 308.424 419.388 304.35C449.685 302.838 480.111 301.315 509.831 296.568C526.337 293.923 543.349 289.937 555.161 281.039C570.176 269.733 573.513 251.136 562.947 237.685C545.239 215.113 497.668 210.55 485.089 186.172C478.159 172.749 484.566 157.458 493.853 144.63C513.774 117.111 547.681 92.5661 548.749 61.6404C549.483 40.397 532.387 19.5537 506.511 10.1382C479.349 0.233481 442.144 2.45676 422.724 20.3541C402.748 38.7795 367.067 46.5499 336.274 46.372Z" fill="#FFD452"/>
<path d="M316.459 135.586C316.459 135.586 301.177 108.524 278.153 100.725C268.477 97.5143 260.104 91.254 254.29 82.8837C251.561 78.8891 249.204 74.6527 247.249 70.2277" stroke="#535461" stroke-width="2" stroke-miterlimit="10"/>
<path d="M232.779 65.2253C235.398 67.7709 247.616 70.4 247.616 70.4C247.616 70.4 244.619 58.2776 241.999 55.7319C240.74 54.5099 239.046 53.838 237.291 53.864C235.535 53.8901 233.862 54.612 232.64 55.8709C231.417 57.1298 230.745 58.8226 230.771 60.5769C230.797 62.3311 231.519 64.0032 232.779 65.2253Z" fill="#FFD452"/>
<path d="M239.714 87.1801C243.301 87.8916 254.99 83.4617 254.99 83.4617C254.99 83.4617 245.831 74.9021 242.266 74.1906C240.543 73.8523 238.755 74.2121 237.297 75.1909C235.839 76.1697 234.83 77.6873 234.492 79.4098C234.153 81.1323 234.513 82.9187 235.492 84.3759C236.472 85.8331 237.99 86.8418 239.714 87.1801Z" fill="#FFD452"/>
<path d="M264.851 110.908C268.304 109.713 276.157 99.9974 276.157 99.9974C276.157 99.9974 263.977 97.2183 260.524 98.4077C259.691 98.6826 258.922 99.1201 258.26 99.6948C257.598 100.27 257.056 100.97 256.668 101.756C256.279 102.541 256.05 103.396 255.995 104.271C255.939 105.145 256.059 106.022 256.345 106.851C256.632 107.679 257.08 108.442 257.665 109.095C258.249 109.749 258.957 110.28 259.749 110.657C260.54 111.035 261.399 111.251 262.275 111.295C263.15 111.338 264.026 111.206 264.851 110.908Z" fill="#FFD452"/>
<path d="M287.941 124.592C291.545 123.998 300.927 115.744 300.927 115.744C300.927 115.744 289.393 110.941 285.783 111.536C284.051 111.822 282.503 112.784 281.481 114.211C280.458 115.637 280.044 117.411 280.33 119.142C280.617 120.874 281.579 122.421 283.006 123.443C284.434 124.465 286.209 124.878 287.941 124.592Z" fill="#FFD452"/>
<path d="M265.145 73.9739C265.145 77.6312 258.533 88.2251 258.533 88.2251C258.533 88.2251 251.91 77.6368 251.91 73.9795C251.91 72.2253 252.607 70.5429 253.848 69.3025C255.089 68.0621 256.772 67.3652 258.527 67.3652C260.283 67.3652 261.966 68.0621 263.207 69.3025C264.448 70.5429 265.145 72.2253 265.145 73.9795V73.9739Z" fill="#FFD452"/>
<path d="M291.945 90.3149C290.833 93.8055 281.379 101.937 281.379 101.937C281.379 101.937 278.231 89.848 279.321 86.3741C279.845 84.6995 281.014 83.3017 282.569 82.4881C284.125 81.6746 285.94 81.5119 287.616 82.036C289.291 82.56 290.69 83.7278 291.504 85.2825C292.318 86.8372 292.481 88.6514 291.956 90.326L291.945 90.3149Z" fill="#FFD452"/>
<path d="M315.809 109.769C315.325 113.393 307.35 123.014 307.35 123.014C307.35 123.014 302.206 111.631 302.69 108.007C302.923 106.268 303.839 104.693 305.234 103.629C306.63 102.565 308.391 102.098 310.131 102.332C311.87 102.565 313.446 103.48 314.511 104.875C315.576 106.27 316.042 108.03 315.809 109.769Z" fill="#FFD452"/>
<path opacity="0.25" d="M232.779 65.2253C235.398 67.7709 247.616 70.4 247.616 70.4C247.616 70.4 244.619 58.2776 241.999 55.7319C240.74 54.5099 239.046 53.838 237.291 53.864C235.535 53.8901 233.862 54.612 232.64 55.8709C231.417 57.1298 230.745 58.8226 230.771 60.5769C230.797 62.3311 231.519 64.0032 232.779 65.2253Z" fill="black"/>
<path opacity="0.25" d="M239.714 87.1801C243.301 87.8916 254.99 83.4617 254.99 83.4617C254.99 83.4617 245.831 74.9021 242.266 74.1906C240.543 73.8523 238.755 74.2121 237.297 75.1909C235.839 76.1697 234.83 77.6873 234.492 79.4098C234.153 81.1323 234.513 82.9187 235.492 84.3759C236.472 85.8331 237.99 86.8418 239.714 87.1801Z" fill="black"/>
<path opacity="0.25" d="M264.851 110.908C268.304 109.713 276.157 99.9974 276.157 99.9974C276.157 99.9974 263.977 97.2183 260.524 98.4077C259.691 98.6826 258.922 99.1201 258.26 99.6948C257.598 100.27 257.056 100.97 256.668 101.756C256.279 102.541 256.05 103.396 255.995 104.271C255.939 105.145 256.059 106.022 256.345 106.851C256.632 107.679 257.08 108.442 257.665 109.095C258.249 109.749 258.957 110.28 259.749 110.657C260.54 111.035 261.399 111.251 262.275 111.295C263.15 111.338 264.026 111.206 264.851 110.908Z" fill="black"/>
<path opacity="0.25" d="M287.941 124.592C291.545 123.998 300.927 115.744 300.927 115.744C300.927 115.744 289.393 110.941 285.783 111.536C284.051 111.822 282.503 112.784 281.481 114.211C280.458 115.637 280.044 117.411 280.33 119.142C280.617 120.874 281.579 122.421 283.006 123.443C284.434 124.465 286.209 124.878 287.941 124.592Z" fill="black"/>
<path opacity="0.25" d="M265.145 73.9739C265.145 77.6312 258.533 88.2251 258.533 88.2251C258.533 88.2251 251.91 77.6368 251.91 73.9795C251.91 72.2253 252.607 70.5429 253.848 69.3025C255.089 68.0621 256.772 67.3652 258.527 67.3652C260.283 67.3652 261.966 68.0621 263.207 69.3025C264.448 70.5429 265.145 72.2253 265.145 73.9795V73.9739Z" fill="black"/>
<path opacity="0.25" d="M291.945 90.3149C290.833 93.8055 281.379 101.937 281.379 101.937C281.379 101.937 278.231 89.848 279.321 86.3741C279.845 84.6995 281.014 83.3017 282.569 82.4881C284.125 81.6746 285.94 81.5119 287.616 82.036C289.291 82.56 290.69 83.7278 291.504 85.2825C292.318 86.8372 292.481 88.6514 291.956 90.326L291.945 90.3149Z" fill="black"/>
<path opacity="0.25" d="M315.809 109.769C315.325 113.393 307.35 123.014 307.35 123.014C307.35 123.014 302.206 111.631 302.69 108.007C302.923 106.268 303.839 104.693 305.234 103.629C306.63 102.565 308.391 102.098 310.131 102.332C311.87 102.565 313.446 103.48 314.511 104.875C315.576 106.27 316.042 108.03 315.809 109.769Z" fill="black"/>
<path d="M315.586 135.053C315.586 135.053 312.583 104.116 294.704 87.6638C287.157 80.8115 282.039 71.6975 280.116 61.6903C279.242 56.9324 278.806 52.1043 278.815 47.2668" stroke="#535461" stroke-width="2" stroke-miterlimit="10"/>
<path d="M267.609 36.8285C268.972 40.219 279.076 47.5725 279.076 47.5725C279.076 47.5725 281.251 35.2722 279.883 31.8817C279.567 31.0628 279.092 30.3147 278.485 29.6811C277.877 29.0474 277.15 28.541 276.345 28.1911C275.54 27.8413 274.673 27.655 273.795 27.6433C272.917 27.6315 272.045 27.7945 271.231 28.1227C270.417 28.4509 269.676 28.9377 269.052 29.5549C268.428 30.172 267.933 30.9071 267.596 31.7173C267.259 32.5276 267.086 33.3968 267.088 34.2743C267.091 35.1518 267.268 36.0201 267.609 36.8285Z" fill="#FFD452"/>
<path d="M265.029 59.6894C268.021 61.7904 280.495 62.4685 280.495 62.4685C280.495 62.4685 275.634 50.963 272.648 48.862C271.212 47.8523 269.433 47.4539 267.704 47.7547C265.974 48.0554 264.435 49.0305 263.424 50.4656C262.414 51.9007 262.015 53.6781 262.316 55.4068C262.617 57.1356 263.593 58.6741 265.029 59.6838V59.6894Z" fill="#FFD452"/>
<path d="M278.409 91.5878C282.052 91.8935 293.169 86.1852 293.169 86.1852C293.169 86.1852 283.158 78.7095 279.516 78.4038C277.766 78.2564 276.03 78.8095 274.689 79.9415C273.348 81.0735 272.511 82.6917 272.364 84.44C272.216 86.1883 272.77 87.9236 273.903 89.264C275.035 90.6045 276.654 91.4404 278.403 91.5878H278.409Z" fill="#FFD452"/>
<path d="M293.97 113.443C297.506 114.36 309.43 110.613 309.43 110.613C309.43 110.613 300.827 101.554 297.29 100.609C296.434 100.339 295.532 100.246 294.64 100.335C293.747 100.424 292.882 100.694 292.097 101.128C291.311 101.562 290.623 102.151 290.072 102.859C289.522 103.567 289.121 104.379 288.895 105.247C288.668 106.115 288.621 107.019 288.755 107.906C288.889 108.792 289.202 109.642 289.675 110.404C290.148 111.166 290.772 111.824 291.507 112.338C292.242 112.851 293.074 113.21 293.953 113.393L293.97 113.443Z" fill="#FFD452"/>
<path d="M293.658 57.9385C292.179 61.2734 281.835 68.2878 281.835 68.2878C281.835 68.2878 280.072 55.9264 281.551 52.5859C282.261 50.9813 283.58 49.7244 285.218 49.0917C286.855 48.459 288.677 48.5023 290.282 49.2121C291.888 49.9219 293.145 51.24 293.779 52.8765C294.412 54.5131 294.368 56.3339 293.658 57.9385Z" fill="#FFD452"/>
<path d="M311.526 83.7341C309.113 86.4743 297.145 90.0704 297.145 90.0704C297.145 90.0704 299.164 77.7479 301.594 75.0022C302.168 74.3493 302.864 73.8157 303.644 73.4319C304.424 73.0481 305.272 72.8216 306.14 72.7653C307.008 72.7091 307.878 72.8242 308.701 73.104C309.524 73.3839 310.284 73.823 310.937 74.3963C311.59 74.9697 312.124 75.666 312.508 76.4456C312.892 77.2251 313.119 78.0726 313.175 78.9397C313.231 79.8068 313.116 80.6765 312.836 81.4991C312.556 82.3217 312.117 83.0812 311.543 83.7341H311.526Z" fill="#FFD452"/>
<path d="M325.457 111.18C323.544 114.293 312.355 119.862 312.355 119.862C312.355 119.862 312.261 107.373 314.174 104.255C315.117 102.813 316.586 101.795 318.269 101.418C319.951 101.041 321.714 101.335 323.183 102.237C324.652 103.138 325.712 104.577 326.137 106.247C326.561 107.917 326.318 109.687 325.457 111.18Z" fill="#FFD452"/>
<path opacity="0.1" d="M459.646 331.768C461.286 335.103 449.68 338.688 435.304 339.722C422.424 340.65 411.835 339.138 410.495 336.426C409.155 333.714 417.358 330.423 429.96 328.939C444.024 327.294 458.005 328.467 459.646 331.768Z" fill="#FFD452"/>
<path d="M121.653 155.379L298.825 92.6661V309.319L121.653 305.628V155.379Z" fill="white"/>
<path opacity="0.2" d="M121.653 155.379L298.825 92.6661V309.319L121.653 305.628V155.379Z" fill="#FFD452"/>
<path d="M0 191.157L101.076 155.379V305.628H0V191.157Z" fill="white"/>
<path opacity="0.2" d="M0 191.157L101.076 155.379V305.628H0V191.157Z" fill="#FFD452"/>
<path d="M298.825 92.6661L475.99 155.379V305.628L298.825 309.319V92.6661Z" fill="white"/>
<path opacity="0.5" d="M298.825 92.6661L475.99 155.379V305.628L298.825 309.319V92.6661Z" fill="#FFD452"/>
<path d="M599.473 191.607L497.123 155.379V305.628H599.473V191.607Z" fill="white"/>
<path opacity="0.5" d="M599.473 191.607L497.123 155.379V305.628H599.473V191.607Z" fill="#FFD452"/>
<path d="M58.8996 217.242C58.1822 217.242 57.5982 218.22 57.5982 219.426V246.617C57.6362 249.3 57.0035 251.949 55.7574 254.326C54.5951 256.366 52.8155 257.661 51.1138 257.661H50.0015C48.3331 257.661 46.6981 256.416 45.419 254.22C44.0854 251.85 43.3898 249.175 43.4003 246.456V211.372C43.3654 209.433 43.8657 207.521 44.8462 205.848C45.7749 204.38 46.9928 203.569 48.2719 203.569C49.551 203.569 50.7245 204.38 51.6087 205.836C52.5465 207.536 53.0185 209.454 52.9768 211.395V244.155C52.9768 246.545 51.8645 248.657 50.5521 248.657C49.4398 248.657 48.1941 246.856 48.1941 244.155V225.446C48.1941 224.245 47.6102 223.261 46.8927 223.261C46.1753 223.261 45.5858 224.245 45.5858 225.446V244.132C45.5858 249.101 47.7214 252.848 50.5521 252.848C51.9313 252.848 53.2048 251.992 54.1224 250.43C55.1487 248.493 55.6527 246.323 55.585 244.132V211.372C55.6423 208.349 54.8917 205.366 53.4106 202.729C52.0314 200.423 50.1906 199.161 48.2275 199.161C46.2643 199.161 44.4235 200.423 43.0277 202.729C41.5428 205.37 40.7938 208.361 40.8587 211.389V246.467C40.8587 250.485 41.882 254.565 43.5838 257.377C45.2855 260.19 47.5879 261.824 49.9459 261.824H51.086C53.3939 261.824 55.7074 260.19 57.4314 257.333C58.3239 255.824 58.9962 254.196 59.4279 252.497C59.9262 250.573 60.1767 248.593 60.1731 246.606V219.371C60.1731 218.164 59.617 217.186 58.8773 217.186L58.8996 217.242Z" fill="white"/>
<path d="M307.878 277.782C307.878 277.782 311.176 282.095 306.354 288.603C301.533 295.112 297.551 300.615 299.164 304.661C299.164 304.661 306.438 292.572 312.355 292.433C318.272 292.294 314.385 285.052 307.878 277.782Z" fill="#FFD452"/>
<path opacity="0.1" d="M307.878 277.782C308.165 278.2 308.391 278.657 308.551 279.138C314.324 285.919 317.399 292.244 311.849 292.405C306.677 292.555 300.476 301.793 298.991 304.127C299.037 304.316 299.095 304.502 299.164 304.683C299.164 304.683 306.438 292.594 312.355 292.455C318.272 292.316 314.385 285.052 307.878 277.782Z" fill="black"/>
<path d="M314.007 283.279C314.007 284.796 313.834 286.024 313.623 286.024C313.412 286.024 313.245 284.796 313.245 283.279C313.245 281.761 313.456 282.473 313.668 282.473C313.879 282.473 314.007 281.761 314.007 283.279Z" fill="#FFD037"/>
<path d="M316.109 285.091C314.78 285.813 313.618 286.252 313.517 286.069C313.417 285.885 314.413 285.146 315.742 284.401C317.071 283.657 316.548 284.207 316.648 284.401C316.749 284.596 317.444 284.363 316.109 285.091Z" fill="#FFD037"/>
<path d="M290.455 277.782C290.455 277.782 287.157 282.095 291.979 288.603C296.8 295.112 300.771 300.615 299.164 304.661C299.164 304.661 291.895 292.572 285.972 292.433C280.05 292.294 283.943 285.052 290.455 277.782Z" fill="#FFD452"/>
<path opacity="0.1" d="M290.455 277.782C290.168 278.2 289.942 278.657 289.782 279.138C284.004 285.919 280.928 292.244 286.484 292.405C291.65 292.555 297.857 301.793 299.342 304.127C299.294 304.316 299.235 304.502 299.164 304.683C299.164 304.683 291.895 292.594 285.972 292.455C280.05 292.316 283.943 285.052 290.455 277.782Z" fill="black"/>
<path d="M284.326 283.279C284.326 284.796 284.493 286.024 284.704 286.024C284.916 286.024 285.088 284.796 285.088 283.279C285.088 281.761 284.871 282.473 284.665 282.473C284.46 282.473 284.326 281.761 284.326 283.279Z" fill="#FFD037"/>
<path d="M282.219 285.091C283.553 285.813 284.716 286.252 284.816 286.069C284.916 285.885 283.92 285.146 282.591 284.401C281.262 283.657 281.785 284.207 281.685 284.401C281.585 284.596 280.867 284.363 282.219 285.091Z" fill="#FFD037"/>
<path opacity="0.1" d="M299.164 337.632C318.207 337.632 333.644 335.266 333.644 332.346C333.644 329.427 318.207 327.061 299.164 327.061C280.121 327.061 264.684 329.427 264.684 332.346C264.684 335.266 280.121 337.632 299.164 337.632Z" fill="#FFD452"/>
<path d="M316.915 298.853L316.749 300.198L316.515 302.099L316.42 302.888L316.187 304.794L316.087 305.584L315.859 307.485L313.217 329.106C312.984 331.035 309.83 332.541 306.021 332.541H292.312C288.503 332.541 285.355 331.035 285.116 329.106L282.474 307.485L282.241 305.584L282.146 304.794L281.913 302.888L281.813 302.099L281.585 300.198L281.418 298.853C281.284 297.741 282.992 296.835 285.149 296.835H313.189C315.347 296.835 317.049 297.758 316.915 298.853Z" fill="#444053"/>
<path d="M316.749 300.198L316.515 302.099H281.813L281.585 300.198H316.749Z" fill="#9D9CB5"/>
<path d="M316.42 302.894L316.187 304.794H282.146L281.913 302.894H316.42Z" fill="#9D9CB5"/>
<path d="M316.087 305.589L315.859 307.49H282.474L282.241 305.589H316.087Z" fill="#9D9CB5"/>
<path d="M232.128 181.447L226.817 188.5C226.773 188.566 226.71 188.618 226.637 188.648C226.564 188.679 226.483 188.687 226.405 188.673L220.916 187.361C220.813 187.322 220.722 187.254 220.655 187.165C220.588 187.077 220.548 186.971 220.538 186.861L219.56 179.596C219.53 179.401 219.576 179.203 219.687 179.04L224.987 171.998C225.186 171.715 225.282 171.374 225.26 171.029C225.237 170.684 225.098 170.358 224.865 170.103C223.861 169.101 222.522 168.507 221.106 168.435C221.028 168.427 220.95 168.427 220.872 168.435C219.393 168.547 216.223 169.641 213.776 173.082C211.401 176.417 208.915 182.564 211.117 189.434C211.379 190.262 211.674 191.357 210.795 192.519C209.916 193.681 187.187 221.977 187.187 221.977C185.057 224.406 185.213 228.897 187.187 231.51C187.607 232.106 188.16 232.597 188.801 232.944C189.443 233.292 190.156 233.485 190.886 233.511C191.596 233.498 192.291 233.302 192.903 232.943C193.516 232.584 194.026 232.073 194.384 231.46C194.384 231.46 215.594 201.557 216.629 200.195C216.768 199.967 216.96 199.776 217.188 199.638C217.416 199.499 217.675 199.418 217.941 199.4C218.308 199.419 218.661 199.549 218.953 199.772C220.082 200.543 221.419 200.948 222.785 200.934C225.955 200.934 229.286 198.989 231.322 196.299C233.42 193.594 234.641 190.312 234.82 186.894C234.89 185.029 234.454 183.179 233.557 181.542C233.498 181.407 233.404 181.292 233.285 181.206C233.165 181.121 233.025 181.069 232.879 181.057C232.733 181.044 232.586 181.072 232.454 181.135C232.322 181.199 232.209 181.297 232.128 181.419V181.447ZM192.087 228.108C191.959 228.303 191.784 228.463 191.579 228.574C191.374 228.685 191.144 228.743 190.911 228.743C190.677 228.743 190.448 228.685 190.242 228.574C190.037 228.463 189.862 228.303 189.734 228.108C189.424 227.649 189.257 227.106 189.257 226.552C189.257 225.997 189.424 225.455 189.734 224.995C189.862 224.801 190.037 224.64 190.242 224.53C190.448 224.419 190.677 224.361 190.911 224.361C191.144 224.361 191.374 224.419 191.579 224.53C191.784 224.64 191.959 224.801 192.087 224.995C192.398 225.455 192.565 225.996 192.566 226.551C192.567 227.106 192.402 227.648 192.092 228.108H192.087Z" fill="white"/>
<path d="M420.161 195.081C418.692 178.118 407.186 164.9 393.188 164.9C383.923 164.9 375.765 170.675 370.865 179.496C369.362 178.717 367.693 178.307 365.999 178.301C358.925 178.301 353.208 186.083 353.08 194.853C345.851 197.722 341.09 206.526 341.09 215.763C341.09 227.085 348.453 237.079 357.529 237.079H417.28C426.361 237.079 433.725 227.074 433.725 215.763C433.725 205.681 427.863 196.793 420.161 195.081ZM406.663 191.191L382.477 221.483C382.166 221.866 381.365 222.722 380.375 222.722C379.951 222.673 379.543 222.533 379.178 222.311C378.813 222.089 378.501 221.792 378.262 221.438L368.113 208.793C367.972 208.609 367.896 208.383 367.896 208.151C367.896 207.92 367.972 207.694 368.113 207.509L371.333 203.496C371.39 203.415 371.466 203.349 371.554 203.301C371.642 203.254 371.739 203.228 371.839 203.224C371.938 203.227 372.036 203.254 372.124 203.301C372.211 203.348 372.287 203.415 372.345 203.496L380.381 213.501L402.448 185.783C402.507 185.702 402.583 185.636 402.67 185.589C402.758 185.542 402.855 185.515 402.954 185.51C403.054 185.511 403.153 185.536 403.241 185.583C403.329 185.631 403.405 185.699 403.46 185.783L406.624 189.868C406.779 190.048 406.868 190.276 406.875 190.514C406.882 190.752 406.807 190.985 406.663 191.174V191.191Z" fill="white"/>
<path d="M566.628 221.944C569.666 221.944 572.128 218.662 572.128 214.613C572.128 210.564 569.666 207.281 566.628 207.281C563.591 207.281 561.128 210.564 561.128 214.613C561.128 218.662 563.591 221.944 566.628 221.944Z" fill="white"/>
<path d="M566.628 224.773C566.022 224.77 565.419 224.673 564.843 224.484L559.415 231.86C559.37 231.922 559.345 231.997 559.345 232.074C559.345 232.151 559.37 232.226 559.415 232.288L568.041 244.516C568.326 244.929 568.478 245.42 568.478 245.922C568.478 246.424 568.326 246.915 568.041 247.328C567.919 247.495 567.76 247.632 567.577 247.729C567.394 247.825 567.191 247.878 566.984 247.884C566.778 247.879 566.576 247.826 566.393 247.729C566.211 247.633 566.054 247.496 565.933 247.328L557.341 235.1C557.323 235.073 557.298 235.05 557.269 235.035C557.24 235.019 557.207 235.011 557.174 235.011C557.141 235.011 557.108 235.019 557.079 235.035C557.05 235.05 557.025 235.073 557.007 235.1L554.911 237.946C553.159 240.314 550.834 239.958 548.332 239.975C545.829 239.992 543.399 238.569 541.619 236.167L539.606 233.433C539.588 233.405 539.563 233.383 539.534 233.367C539.505 233.352 539.472 233.343 539.439 233.343C539.406 233.343 539.374 233.352 539.344 233.367C539.315 233.383 539.29 233.405 539.272 233.433L530.68 245.661C530.558 245.828 530.399 245.965 530.216 246.061C530.033 246.158 529.83 246.211 529.623 246.217C529.417 246.211 529.215 246.158 529.033 246.062C528.85 245.965 528.693 245.828 528.572 245.661C528.287 245.247 528.135 244.757 528.135 244.255C528.135 243.752 528.287 243.262 528.572 242.848L537.198 230.62C537.236 230.556 537.256 230.482 537.256 230.406C537.256 230.331 537.236 230.257 537.198 230.192L524.857 213.451C524.707 213.251 524.468 213.39 524.468 213.662V247.167C524.468 249.857 526.136 252.058 528.133 252.058L568.463 253.726C570.482 253.726 572.128 251.503 572.128 248.835V221.638C570.744 223.567 568.797 224.773 566.628 224.773Z" fill="white"/>
<path d="M559.009 214.613C559.002 212.937 559.322 211.276 559.949 209.722L528.122 208.054C527.69 208.065 527.265 208.166 526.874 208.351C526.483 208.535 526.135 208.8 525.853 209.127L543.832 233.527C544.323 234.273 544.986 234.889 545.765 235.325C546.544 235.76 547.417 236.001 548.309 236.029C549.978 236.029 551.602 236.812 552.792 235.195L562.012 222.678C560.183 220.816 559.009 217.898 559.009 214.613Z" fill="white"/>
<path d="M603.878 302.493C603.878 302.493 597.377 302.104 598.144 306.651C598.102 306.88 598.133 307.116 598.233 307.327C598.333 307.537 598.496 307.711 598.7 307.824C598.7 307.824 598.7 307.485 599.367 307.601C599.601 307.639 599.838 307.65 600.074 307.635C600.391 307.61 600.693 307.486 600.936 307.279C600.936 307.279 602.76 306.523 603.472 303.538C603.472 303.538 604 302.888 603.978 302.721L602.866 303.188C603.075 303.644 603.103 304.163 602.943 304.639C602.943 304.639 602.91 303.216 602.699 303.249C602.654 303.249 602.143 303.527 602.143 303.527C602.143 303.527 602.788 304.9 602.304 305.9C602.304 305.9 602.487 304.233 601.942 303.627L601.169 304.077C601.169 304.077 601.926 305.495 601.414 306.656C601.414 306.656 601.547 304.878 601.008 304.183L600.307 304.739C600.307 304.739 601.019 306.145 600.585 307.107C600.585 307.107 600.53 305.033 600.157 304.883C599.892 305.108 599.655 305.363 599.451 305.645C599.451 305.645 599.935 306.662 599.634 307.196C599.634 307.196 599.451 305.817 599.301 305.811C598.982 306.278 598.754 306.8 598.628 307.351C598.659 306.772 598.841 306.21 599.156 305.723C598.804 305.789 598.479 305.957 598.222 306.206C598.222 306.206 598.316 305.561 599.334 305.5C599.517 305.233 599.73 304.987 599.968 304.767C599.435 304.721 598.897 304.783 598.389 304.95C598.389 304.95 598.945 304.339 600.152 304.617L600.841 304.061C600.23 303.961 599.606 303.961 598.995 304.061C598.995 304.061 599.629 303.505 601.025 303.916L601.781 303.466C601.203 303.339 600.61 303.286 600.018 303.31C600.659 303.071 601.366 303.083 601.998 303.344L602.554 303.105C602.554 303.105 601.742 302.944 601.509 302.921C601.275 302.899 601.258 302.827 601.258 302.827C601.771 302.743 602.296 302.803 602.777 302.999C603.158 302.863 603.526 302.694 603.878 302.493Z" fill="#FFD452"/>
<path opacity="0.1" d="M599.401 308.996C601.941 308.996 604 308.648 604 308.218C604 307.789 601.941 307.44 599.401 307.44C596.861 307.44 594.802 307.789 594.802 308.218C594.802 308.648 596.861 308.996 599.401 308.996Z" fill="#FFD452"/>
<path d="M503.752 302.682C503.752 302.682 495.911 302.21 496.834 307.685C496.786 307.963 496.828 308.25 496.952 308.503C497.077 308.757 497.279 308.965 497.529 309.096C497.529 309.096 497.529 308.691 498.336 308.83C498.617 308.877 498.902 308.89 499.186 308.869C499.572 308.844 499.94 308.694 500.232 308.441C500.232 308.441 502.456 307.529 503.291 303.927C503.291 303.927 503.93 303.144 503.902 302.938L502.579 303.494C502.831 304.042 502.865 304.667 502.673 305.239C502.673 305.239 502.634 303.527 502.379 303.572C502.329 303.572 501.689 303.9 501.689 303.9C501.689 303.9 502.468 305.567 501.884 306.773C501.884 306.773 502.106 304.722 501.444 303.994L500.516 304.55C500.516 304.55 501.422 306.267 500.81 307.674C500.81 307.674 500.966 305.523 500.321 304.683L499.476 305.345C499.476 305.345 500.332 307.012 499.809 308.196C499.809 308.196 499.743 305.695 499.292 305.506C498.972 305.776 498.686 306.084 498.441 306.423C498.441 306.423 498.997 307.651 498.664 308.302C498.664 308.302 498.441 306.634 498.258 306.634C497.875 307.2 497.6 307.831 497.446 308.496C497.483 307.796 497.701 307.118 498.08 306.529C497.664 306.604 497.278 306.797 496.968 307.084C496.968 307.084 497.084 306.301 498.28 306.234C498.501 305.909 498.758 305.611 499.047 305.345C498.403 305.289 497.754 305.365 497.14 305.567C497.14 305.567 497.774 304.828 499.264 305.161L500.099 304.483C499.362 304.364 498.611 304.364 497.874 304.483C497.874 304.483 498.636 303.833 500.327 304.305L501.233 303.75C500.534 303.595 499.818 303.534 499.103 303.566C499.103 303.566 499.943 303.11 501.5 303.599L502.145 303.31C502.145 303.31 501.172 303.121 500.883 303.088C500.593 303.055 500.582 302.977 500.582 302.977C501.201 302.875 501.836 302.946 502.418 303.183C502.877 303.056 503.323 302.889 503.752 302.682Z" fill="#FFD452"/>
<path opacity="0.1" d="M498.352 310.536C501.418 310.536 503.902 310.115 503.902 309.597C503.902 309.078 501.418 308.657 498.352 308.657C495.287 308.657 492.802 309.078 492.802 309.597C492.802 310.115 495.287 310.536 498.352 310.536Z" fill="#FFD452"/>
<path d="M454.557 247.89C454.557 247.89 455.197 247.273 454.985 246.856C454.924 246.727 454.892 246.585 454.892 246.442C454.892 246.298 454.924 246.157 454.985 246.028C454.985 246.028 453.551 240.392 453.017 239.825C452.666 239.412 452.396 238.937 452.221 238.424C452.277 238.314 452.304 238.192 452.299 238.068C452.276 237.5 452.082 236.952 451.743 236.495C451.326 235.879 451.096 235.155 451.081 234.411C451.076 234.319 451.076 234.226 451.081 234.133C450.922 233.715 450.664 233.341 450.329 233.044C449.994 232.747 449.592 232.535 449.157 232.427C449.341 231.232 449.591 230.037 449.669 228.836C449.919 225.073 448.518 221.422 447.138 217.898C446.837 217.024 446.432 216.19 445.932 215.413C445.315 214.601 444.533 213.929 443.638 213.44C442.743 212.952 441.754 212.658 440.737 212.578C439.989 212.485 439.229 212.559 438.513 212.795C437.806 213.113 437.157 213.547 436.594 214.079C435.999 214.579 435.404 215.091 434.854 215.635L434.787 215.702L434.592 215.908L434.514 215.986L434.331 216.191L434.264 216.264C434.186 216.358 434.103 216.453 434.025 216.553C433.953 216.647 433.88 216.736 433.814 216.831L433.747 216.925L433.602 217.131L433.536 217.236C433.485 217.309 433.447 217.381 433.402 217.453L433.341 217.553C433.285 217.659 433.224 217.764 433.168 217.875L432.968 218.32V218.381L432.851 218.676C432.701 219.032 432.557 219.387 432.373 219.726L432.34 219.782L431.939 220.265C431.757 220.506 431.604 220.767 431.483 221.044L431.444 221.133C431.444 221.171 431.417 221.216 431.4 221.255L431.361 221.355C431.351 221.398 431.338 221.441 431.322 221.483C431.322 221.516 431.322 221.549 431.322 221.588L431.289 221.711C431.289 221.749 431.289 221.783 431.289 221.822C431.289 221.861 431.289 221.905 431.261 221.944V222.061V222.183C431.261 222.228 431.261 222.272 431.261 222.322C431.261 222.372 431.261 222.389 431.261 222.416C431.261 222.444 431.261 222.572 431.261 222.65C431.261 222.728 431.261 222.711 431.261 222.744C431.258 222.794 431.258 222.844 431.261 222.894C431.258 222.928 431.258 222.961 431.261 222.995C431.258 223.041 431.258 223.087 431.261 223.133V223.234C431.261 223.284 431.261 223.328 431.261 223.373C431.258 223.406 431.258 223.439 431.261 223.473L431.294 223.617C431.294 223.617 431.294 223.678 431.294 223.706L431.344 223.862C431.344 223.862 431.344 223.912 431.372 223.934C431.4 223.956 431.428 224.09 431.461 224.162C431.632 224.534 431.841 224.888 432.084 225.218C432.245 225.44 432.412 225.657 432.579 225.879L432.818 226.213C432.98 226.434 433.127 226.666 433.257 226.908C433.648 227.652 433.837 228.486 433.807 229.326C433.777 230.166 433.528 230.984 433.085 231.699L432.885 232.004C432.775 232.174 432.698 232.362 432.657 232.56C432.637 232.732 432.656 232.906 432.71 233.07C432.765 233.235 432.855 233.385 432.974 233.511L432.479 233.638C432.073 233.75 431.795 233.839 431.795 233.839C431.458 233.809 431.119 233.809 430.783 233.839C430.315 233.986 429.895 234.255 429.565 234.617C429.565 234.617 427.44 234.872 426.745 234.255C426.05 233.638 423.614 233.427 423.614 233.427C423.614 233.427 422.925 232.082 422.179 231.665C421.434 231.248 419.632 230.476 419.577 230.065C419.422 229.629 419.188 229.226 418.887 228.875C418.521 228.797 418.149 228.752 417.775 228.742L417.658 228.542L416.173 225.979C416.173 225.979 414.31 223.806 413.304 223.6C412.297 223.395 414.722 225.907 414.839 226.024C414.495 225.778 414.067 225.679 413.65 225.747C413.233 225.816 412.861 226.048 412.614 226.391C411.824 227.269 413.921 229.331 415.222 230.47L415.434 230.654C415.443 230.768 415.46 230.881 415.484 230.993C416.068 234.044 419.304 236.684 419.304 236.684C419.304 236.684 419.677 238.391 420.9 238.808C421.874 239.136 427.101 241.503 429.826 241.976C429.598 242.565 429.331 243.932 430.46 245.944C430.46 245.944 430.727 249.513 430.143 249.98C429.559 250.446 429.587 255.616 429.587 255.616C429.587 255.616 427.362 264.614 429.587 266.526C429.728 266.647 429.888 266.745 430.06 266.815C430.06 266.954 430.099 267.099 430.115 267.249C430.215 268.149 430.249 269.083 430.01 269.472C429.454 270.35 430.193 272.729 430.193 272.729C430.193 272.729 428.047 284.885 429.003 289.176C429.607 292.382 429.89 295.64 429.848 298.903C429.848 298.903 429.531 302.677 431.178 304.956C431.358 305.494 431.465 306.055 431.495 306.623C431.603 307.713 431.89 308.778 432.345 309.775C432.718 310.497 433.458 313.554 432.824 314.377C432.19 315.199 433.513 324.209 433.513 324.209C433.513 324.209 432.451 326.988 433.513 328.45L433.547 328.489C432.917 328.482 432.29 328.392 431.684 328.222C430.493 327.822 431.383 329.334 432.796 330.368C432.179 331.768 431.333 333.647 431.05 334.258C429.821 334.47 427.385 334.814 425.956 334.475C423.992 334.014 426.806 337.165 429.459 337.738C431.332 338.087 433.239 338.225 435.143 338.149L436.856 336.259C438.24 336.445 439.638 336.497 441.032 336.415L440.882 338.171H441.889V336.348C442.523 336.287 443.179 336.204 443.857 336.081C443.857 336.081 443.896 334.158 443.774 332.341L444.391 332.396L444.486 331.39L446.671 331.785L448.634 315.666C448.634 315.666 448.851 309.669 449.33 306.306C449.808 302.944 448.317 291.666 448.317 291.666C448.317 291.666 448.212 291.11 448.106 290.065C448 289.02 448.106 282.923 448.106 282.923C448.106 282.923 448.901 279.588 448.746 279.305C448.59 279.021 448.796 277.598 448.796 277.598C452.132 270.801 448.028 264.659 446.599 262.836C446.681 262.759 446.731 262.653 446.738 262.541C446.746 262.503 446.746 262.463 446.738 262.424C446.513 261.849 446.245 261.292 445.937 260.757L446.771 259.695C447.061 260.112 447.266 260.423 447.266 260.423C447.266 260.423 448.167 258.406 449.074 257.644C449.98 256.883 454.329 249.629 454.329 249.629C454.329 249.629 455.341 248.951 454.807 248.384C454.274 247.817 454.557 247.89 454.557 247.89ZM441.177 305.095C441.106 304.86 440.975 304.648 440.799 304.478C440.799 304.478 440.643 303.366 440.587 301.937C440.904 303.049 441.227 303.855 441.227 303.855L441.177 305.095ZM443.679 331.535C443.679 331.435 443.679 331.335 443.679 331.24H443.757L443.679 331.535ZM444.336 257.956V257.889C444.324 257.746 444.349 257.603 444.41 257.474C444.47 257.344 444.564 257.232 444.68 257.15C444.741 257.112 444.79 257.058 444.823 256.995C444.855 256.931 444.869 256.86 444.864 256.788C444.838 256.554 444.75 256.332 444.608 256.144C444.714 256.221 445.042 256.399 445.264 255.754C445.298 255.654 445.314 255.549 445.314 255.443C445.261 254.904 445.042 254.395 444.686 253.987L447.088 248.929C447.351 249.007 447.619 249.068 447.889 249.112C447.261 251.058 446.744 253.376 446.744 253.376L444.886 257.461C445.012 257.51 445.123 257.59 445.209 257.694L444.336 257.956Z" fill="url(#paint0_linear_7_2)"/>
<path d="M436.344 328.361C436.344 328.361 433.224 328.745 431.706 328.222C430.188 327.7 432.173 330.445 434.225 331.118C435.674 331.543 437.167 331.796 438.674 331.874L441.082 329.606L443.64 329.806L443.195 332.313L443.991 332.385L444.297 329.106L436.344 328.361Z" fill="#444053"/>
<path opacity="0.1" d="M436.344 328.361C436.344 328.361 433.224 328.745 431.706 328.222C430.188 327.7 432.173 330.445 434.225 331.118C435.674 331.543 437.167 331.796 438.674 331.874L441.082 329.606L443.64 329.806L443.195 332.313L443.991 332.385L444.297 329.106L436.344 328.361Z" fill="black"/>
<path d="M431.839 334.092C431.839 334.092 428.091 334.909 426.195 334.447C424.298 333.986 427.018 337.115 429.581 337.677C431.389 338.026 433.231 338.164 435.07 338.088L437.74 335.064L440.865 335.014L440.609 338.11H441.588V334.092H431.839Z" fill="#444053"/>
<path opacity="0.1" d="M431.839 334.092C431.839 334.092 428.091 334.909 426.195 334.447C424.298 333.986 427.018 337.115 429.581 337.677C431.389 338.026 433.231 338.164 435.07 338.088L437.74 335.064L440.865 335.014L440.609 338.11H441.588V334.092H431.839Z" fill="black"/>
<path d="M445.687 262.875C445.687 262.875 452.099 270 448.256 278.048C448.256 278.048 448.05 279.488 448.201 279.744C448.351 279.999 447.589 283.334 447.589 283.334C447.589 283.334 447.483 289.382 447.589 290.41C447.695 291.438 447.795 291.994 447.795 291.994C447.795 291.994 449.229 303.171 448.768 306.506C448.306 309.841 448.101 315.788 448.101 315.788L446.204 331.785L436.355 329.94L440.804 307.99L440.96 304.1C440.96 304.1 439.113 299.336 439.931 296.924C440.749 294.512 439.725 263.803 439.725 263.803L445.687 262.875Z" fill="#444053"/>
<path opacity="0.02" d="M445.687 262.875C445.687 262.875 452.099 270 448.256 278.048C448.256 278.048 448.05 279.488 448.201 279.744C448.351 279.999 447.589 283.334 447.589 283.334C447.589 283.334 447.483 289.382 447.589 290.41C447.695 291.438 447.795 291.994 447.795 291.994C447.795 291.994 449.229 303.171 448.768 306.506C448.306 309.841 448.101 315.788 448.101 315.788L446.204 331.785L436.355 329.94L440.804 307.99L440.96 304.1C440.96 304.1 439.113 299.336 439.931 296.924C440.749 294.512 439.725 263.803 439.725 263.803L445.687 262.875Z" fill="black"/>
<path d="M440.971 297.33C439.859 299.481 440.559 304.711 440.559 304.711C442.044 305.995 441.227 317.172 441.227 317.172C441.227 317.172 442.25 328.194 442.895 329.478C443.54 330.762 443.451 336.037 443.451 336.037C435.91 337.421 430.983 334.447 430.983 334.447C430.983 334.447 433.396 328.961 433.447 328.706C433.474 328.561 433.797 328.95 433.891 329.067L433.447 328.45C432.418 327.016 433.447 324.248 433.447 324.248C433.447 324.248 432.162 315.355 432.779 314.505C433.396 313.654 432.679 310.658 432.318 309.941C431.876 308.95 431.598 307.893 431.495 306.812C431.465 306.254 431.362 305.703 431.189 305.172C429.598 302.916 429.904 299.175 429.904 299.175C429.947 295.943 429.673 292.716 429.086 289.537C428.163 285.28 430.238 273.229 430.238 273.229C430.238 273.229 429.548 270.873 430.06 270C430.293 269.611 430.26 268.688 430.16 267.777C430.037 266.665 429.804 265.631 429.804 265.631L443.813 263.164C444.108 263.653 444.369 264.125 444.625 264.581C449.257 273.135 446.132 276.309 446.132 276.309L443.157 285.435C443.157 285.435 442.1 295.173 440.971 297.33Z" fill="#444053"/>
<path d="M418.787 230.42L416.785 232.088C416.785 232.088 416.39 231.776 415.867 231.304C414.61 230.192 412.586 228.13 413.348 227.263C413.463 227.096 413.61 226.953 413.782 226.844C413.953 226.734 414.144 226.661 414.345 226.627C414.545 226.593 414.75 226.6 414.948 226.647C415.145 226.695 415.331 226.781 415.495 226.902C415.383 226.78 413.059 224.295 414.015 224.495C414.972 224.695 416.796 226.852 416.796 226.852L418.231 229.392L418.787 230.42Z" fill="#EFB7B9"/>
<path d="M445.587 258.111L443.229 258.828L445.02 261.952L447.072 259.29L445.587 258.111Z" fill="#EFB7B9"/>
<path d="M440.048 228.731C443.758 228.731 446.766 225.725 446.766 222.016C446.766 218.308 443.758 215.302 440.048 215.302C436.338 215.302 433.33 218.308 433.33 222.016C433.33 225.725 436.338 228.731 440.048 228.731Z" fill="#EFB7B9"/>
<path d="M436.094 224.467C436.094 224.467 442.211 234.155 436.405 234.978C430.599 235.801 444.191 241.692 444.191 241.692L449.268 236.568C449.268 236.568 443.985 227.441 444.819 223.956C445.654 220.471 436.094 224.467 436.094 224.467Z" fill="#EFB7B9"/>
<path opacity="0.1" d="M444.641 264.581C443.287 264.994 441.907 265.315 440.509 265.543C440.509 265.543 432.946 268.877 430.193 267.766C430.071 266.654 429.837 265.62 429.837 265.62L443.813 263.164C444.124 263.653 444.397 264.125 444.641 264.581Z" fill="black"/>
<path d="M451.599 239.236L450.231 242.065L448.69 245.244L448.468 245.7L446.638 249.652L444.313 254.654C444.313 254.654 445.136 255.627 444.869 256.399C444.603 257.172 444.252 256.805 444.208 256.761C444.247 256.822 444.764 257.489 444.302 257.783C444.166 257.901 444.066 258.055 444.012 258.226C443.958 258.398 443.952 258.581 443.996 258.756C443.996 258.756 445.893 261.885 446.254 263.013C446.616 264.142 440.509 265.114 440.509 265.114C440.509 265.114 431.839 268.961 429.682 267.06C427.524 265.159 429.682 256.244 429.682 256.244C429.682 256.244 429.682 251.119 430.238 250.658C430.794 250.196 430.544 246.656 430.544 246.656C429.059 243.938 430.082 242.398 430.082 242.398L429.67 235.428C429.67 235.428 430.338 234.711 430.849 234.661C431.175 234.628 431.503 234.628 431.828 234.661C431.828 234.661 432.095 234.567 432.49 234.461C433.313 234.228 434.676 233.905 435.159 234.144C435.877 234.506 440.498 233.588 440.498 233.588C442.487 233.297 444.49 233.112 446.499 233.033C447.185 232.992 447.873 233.067 448.534 233.255C448.98 233.355 449.394 233.566 449.737 233.868C450.08 234.17 450.342 234.554 450.498 234.984C450.421 235.817 450.639 236.651 451.115 237.34C451.949 238.674 451.599 239.236 451.599 239.236Z" fill="#FF6484"/>
<path opacity="0.1" d="M418.787 230.42L416.785 232.088C416.785 232.088 416.39 231.776 415.867 231.304C415.706 229.575 417.18 229.348 418.22 229.392L418.787 230.42Z" fill="black"/>
<path d="M430.555 235.395L429.682 235.445C429.682 235.445 427.629 235.701 426.962 235.084C426.295 234.467 423.937 234.267 423.937 234.267C423.937 234.267 423.269 232.933 422.552 232.521C421.835 232.11 420.088 231.343 420.038 230.932C419.89 230.501 419.664 230.102 419.371 229.753C419.371 229.753 415.523 228.831 416.09 231.854C416.657 234.878 419.782 237.496 419.782 237.496C419.782 237.496 420.144 239.163 421.323 239.597C422.502 240.03 430.143 243.599 431.378 242.676C432.612 241.753 430.555 235.395 430.555 235.395Z" fill="#FF6484"/>
<path opacity="0.1" d="M451.126 237.324C450.65 236.634 450.432 235.8 450.509 234.967C450.353 234.537 450.091 234.154 449.748 233.852C449.405 233.55 448.992 233.339 448.545 233.238C448.221 233.142 447.887 233.076 447.55 233.044C447.99 233.147 448.397 233.358 448.735 233.658C449.073 233.958 449.33 234.337 449.485 234.761C449.405 235.595 449.624 236.43 450.103 237.118C450.92 238.452 450.564 239.019 450.564 239.019L449.196 241.842L447.65 245.033L447.433 245.488L445.604 249.44L443.279 254.443C443.279 254.443 444.096 255.415 443.835 256.188C443.574 256.961 443.223 256.594 443.173 256.549C443.218 256.61 443.729 257.277 443.273 257.572C443.137 257.69 443.036 257.843 442.981 258.015C442.927 258.186 442.92 258.37 442.962 258.545C442.962 258.545 444.864 261.674 445.22 262.802C445.576 263.931 439.475 264.903 439.475 264.903C439.475 264.903 433.452 267.571 430.199 267.366C432.979 268.449 440.504 265.109 440.504 265.109C440.504 265.109 446.621 264.136 446.249 263.008C445.876 261.88 443.991 258.75 443.991 258.75C443.947 258.576 443.952 258.392 444.006 258.221C444.06 258.049 444.161 257.896 444.297 257.778C444.742 257.483 444.241 256.816 444.202 256.755C444.247 256.799 444.625 257.111 444.864 256.394C445.103 255.677 444.308 254.648 444.308 254.648L446.632 249.646L448.462 245.694L448.685 245.238L450.225 242.059L451.593 239.23C451.593 239.23 451.949 238.657 451.126 237.324Z" fill="black"/>
<path d="M450.664 238.469L451.587 239.236C451.755 239.743 452.017 240.215 452.36 240.625C452.872 241.181 454.257 246.772 454.257 246.772C454.198 246.902 454.168 247.042 454.168 247.184C454.168 247.326 454.198 247.466 454.257 247.595C454.463 248.006 453.845 248.623 453.845 248.623C453.845 248.623 453.539 248.518 454.051 249.085C454.563 249.652 453.59 250.313 453.59 250.313C453.59 250.313 449.385 257.489 448.512 258.261C447.639 259.034 446.766 261.04 446.766 261.04C446.766 261.04 444.942 258.172 444.508 258.117L446.304 254.065C446.304 254.065 447.533 248.429 448.456 247.395C449.38 246.361 447.995 242.832 447.995 242.832L450.664 238.469Z" fill="#FF6484"/>
<path opacity="0.1" d="M451.254 248.923C450.486 249.846 449.129 250.035 447.917 249.907C447.739 249.907 447.567 249.863 447.389 249.829C447.127 249.779 446.866 249.718 446.61 249.646C445.694 249.382 444.832 248.959 444.063 248.395C443.902 248.25 443.713 248.138 443.507 248.068C443.263 248.039 443.015 248.086 442.798 248.202C442.582 248.318 442.406 248.498 442.295 248.718C442.033 249.135 441.911 249.624 441.644 250.041C441.353 250.433 440.973 250.749 440.534 250.964C440.096 251.179 439.613 251.285 439.125 251.275C438.148 251.247 437.182 251.06 436.266 250.719C437.085 249.846 437.711 248.81 438.101 247.678C438.269 246.927 438.318 246.155 438.246 245.388C438.023 241.759 436.761 237.935 433.797 235.823C433.285 235.456 432.685 235.022 432.496 234.472C433.319 234.239 434.681 233.916 435.165 234.155C435.882 234.517 440.504 233.6 440.504 233.6C442.493 233.308 444.496 233.123 446.504 233.044C447.191 233.003 447.879 233.078 448.54 233.266C448.207 234.774 448.151 236.329 448.373 237.857C448.584 238.8 448.924 239.709 449.385 240.558C449.652 241.064 449.941 241.57 450.214 242.076C450.998 243.476 451.743 244.883 451.882 246.461C452.001 247.332 451.775 248.215 451.254 248.923Z" fill="black"/>
<path opacity="0.1" d="M441.11 256.149C441.501 256.045 441.908 256.01 442.311 256.044C442.649 256.144 442.957 256.323 443.212 256.566H440.576C439.898 256.566 438.874 256.605 438.352 256.127C438.808 255.666 440.443 256.227 441.11 256.149Z" fill="black"/>
<path d="M431.973 221.227C431.572 221.777 431.32 222.421 431.24 223.096C431.16 223.772 431.256 224.456 431.517 225.084C431.939 226.079 432.751 226.852 433.252 227.808C433.628 228.55 433.81 229.374 433.781 230.206C433.752 231.037 433.513 231.847 433.085 232.56C432.89 232.812 432.75 233.102 432.673 233.411C432.551 234.194 433.363 234.756 434.008 235.211C436.967 237.324 438.229 241.148 438.457 244.777C438.534 245.543 438.487 246.316 438.318 247.067C437.929 248.199 437.303 249.235 436.483 250.107C437.399 250.446 438.365 250.634 439.342 250.663C439.83 250.671 440.313 250.563 440.751 250.348C441.189 250.132 441.569 249.815 441.861 249.424C442.128 249.012 442.25 248.523 442.511 248.101C442.622 247.881 442.798 247.7 443.015 247.584C443.232 247.468 443.479 247.421 443.724 247.451C443.929 247.523 444.118 247.634 444.28 247.779C445.411 248.61 446.739 249.131 448.134 249.29C449.33 249.429 450.687 249.229 451.471 248.307C451.994 247.593 452.219 246.704 452.099 245.828C451.832 242.721 449.202 240.269 448.595 237.224C448.101 234.75 448.99 232.221 449.152 229.709C449.396 225.985 448.039 222.355 446.71 218.87C446.415 218.006 446.024 217.178 445.542 216.403C444.955 215.609 444.204 214.951 443.341 214.471C442.478 213.992 441.522 213.703 440.537 213.623C439.809 213.527 439.068 213.602 438.374 213.84C437.687 214.154 437.059 214.583 436.516 215.107C435.248 216.219 433.941 217.331 433.18 218.876C432.879 219.498 432.685 220.165 432.351 220.766" fill="#925978"/>
<g opacity="0.1">
<path opacity="0.1" d="M433.185 219.871C433.513 219.265 433.741 218.598 434.008 217.981C434.296 217.403 434.655 216.864 435.076 216.375C434.309 217.086 433.671 217.925 433.191 218.854C432.902 219.46 432.707 220.104 432.39 220.693L432.796 220.349C432.692 220.491 432.598 220.64 432.512 220.794C432.773 220.514 432.998 220.204 433.185 219.871Z" fill="black"/>
<path opacity="0.1" d="M448.963 248.423C447.568 248.26 446.24 247.737 445.109 246.906C444.944 246.765 444.755 246.654 444.552 246.578C444.308 246.552 444.061 246.601 443.844 246.718C443.628 246.835 443.452 247.015 443.34 247.234C443.286 247.322 443.238 247.413 443.195 247.506C443.37 247.428 443.566 247.41 443.752 247.456C443.957 247.528 444.145 247.64 444.308 247.784C445.439 248.615 446.767 249.136 448.162 249.296C449.357 249.435 450.714 249.235 451.498 248.312C451.597 248.194 451.683 248.065 451.754 247.929C450.907 248.405 449.922 248.58 448.963 248.423Z" fill="black"/>
<path opacity="0.1" d="M440.148 249.791C439.173 249.761 438.21 249.573 437.295 249.235C438.112 248.359 438.735 247.321 439.125 246.189C439.295 245.44 439.344 244.669 439.269 243.904C439.047 240.275 437.79 236.445 434.82 234.339C434.175 233.878 433.369 233.316 433.485 232.532C433.568 232.225 433.71 231.936 433.903 231.682C434.33 230.97 434.57 230.16 434.599 229.33C434.628 228.5 434.446 227.676 434.069 226.935C433.569 225.979 432.757 225.201 432.329 224.212C432.104 223.664 432.003 223.074 432.034 222.483C432.065 221.892 432.226 221.315 432.507 220.794C432.365 220.943 432.214 221.084 432.056 221.216C431.941 221.375 431.817 221.527 431.684 221.672C431.403 222.192 431.241 222.768 431.212 223.359C431.182 223.949 431.284 224.539 431.511 225.084C431.934 226.079 432.746 226.852 433.246 227.808C433.623 228.55 433.805 229.375 433.776 230.206C433.746 231.037 433.507 231.847 433.08 232.56C432.884 232.812 432.744 233.102 432.668 233.411C432.546 234.194 433.358 234.756 434.003 235.212C436.961 237.324 438.224 241.148 438.452 244.777C438.528 245.543 438.481 246.316 438.313 247.067C437.923 248.199 437.298 249.235 436.477 250.107C437.394 250.446 438.359 250.634 439.336 250.663C439.824 250.671 440.307 250.563 440.745 250.348C441.183 250.132 441.564 249.815 441.855 249.424C441.889 249.368 441.922 249.313 441.95 249.257C441.409 249.596 440.786 249.781 440.148 249.791Z" fill="black"/>
</g>
<path d="M39.5074 316.022C38.3541 315.872 37.2485 315.468 36.2707 314.838L36.1706 314.766C36.2509 314.65 36.3076 314.52 36.3375 314.382C36.2001 314.118 36.1276 313.824 36.1261 313.526C36.1304 313.243 36.0735 312.963 35.9593 312.704V311.314C35.6302 310.849 35.4658 310.288 35.4921 309.719C35.4532 308.568 35.4087 302.921 35.4087 302.921C35.3443 302.626 35.3312 302.321 35.3698 302.021C35.4087 301.365 35.4087 301.12 35.4087 301.12C35.2714 300.74 35.2294 300.332 35.2864 299.931C35.322 299.552 35.2149 299.174 34.9861 298.869L35.6201 295.757C35.6201 295.757 35.9704 285.018 34.9471 281.778C34.9471 281.778 34.9471 281.778 34.9471 281.739C35.0306 279.655 33.7626 276.181 34.48 273.758C35.1974 271.334 35.2864 270.812 35.2864 270.812C35.2864 270.812 32.1164 262.869 31.3156 260.985C30.855 259.764 30.2971 258.582 29.6472 257.45C29.5953 257.379 29.5453 257.313 29.4971 257.25L29.4137 257.15C29.588 256.863 29.6927 256.539 29.7195 256.205C29.764 255.649 29.6806 254.949 30.1088 254.537C30.272 254.405 30.447 254.288 30.6316 254.187C30.9576 253.974 31.217 253.673 31.3803 253.319C31.5435 252.965 31.6039 252.573 31.5548 252.186C31.4305 251.576 31.1399 251.013 30.715 250.558C30.7617 250.286 30.7859 250.011 30.7873 249.735C30.786 249.11 30.6566 248.491 30.4069 247.917C30.1573 247.344 29.7928 246.828 29.3358 246.4V246.144C29.3422 245.577 29.1647 245.024 28.8297 244.566L28.9465 244.649L28.7463 244.477C28.6495 244.377 28.539 244.291 28.4182 244.221C27.4771 243.579 26.3774 243.208 25.2395 243.15C24.1016 243.091 22.9694 243.346 21.9671 243.888C21.465 244.152 21.0339 244.534 20.7103 244.999C20.0485 246.022 20.2153 247.339 19.8705 248.501C19.5257 249.663 18.7582 250.519 18.1076 251.486C17.4569 252.453 16.9175 253.598 17.1622 254.726C17.3401 255.549 17.9185 256.283 17.9074 257.116C17.8801 257.558 17.698 257.977 17.3929 258.298C17.0878 258.619 16.6793 258.823 16.239 258.873H15.9887C16.8158 259.373 17.7496 259.67 18.7138 259.74C18.7138 259.818 18.6693 259.89 18.6526 259.968C17.8962 262.902 17.2011 266.637 17.2011 266.637C17.2011 266.637 17.6682 270.406 16.695 273.352C15.7218 276.298 15.8497 282.362 15.8497 282.362C15.8497 282.362 18.5525 280.967 18.7249 281.867C18.8973 282.767 18.7249 283.012 18.7249 283.012C19.1154 283.218 19.5163 283.403 19.9261 283.568V283.929L19.8038 285.541C19.7605 285.875 19.8126 286.214 19.9539 286.519C20.1875 286.969 19.9539 288.187 19.9539 288.187C19.9539 288.187 19.7537 288.309 19.9539 288.887C20.0428 289.355 19.9885 289.839 19.7982 290.276C19.7982 290.276 19.5591 293.345 19.5146 294C19.3185 294.859 19.0353 295.695 18.6693 296.496C18.6693 296.496 19.3922 297.397 18.6693 297.524C17.9463 297.652 17.8684 298.747 17.8684 298.747C17.8684 298.747 17.0231 299.448 17.0231 299.692C14.4687 302.532 12.8107 306.063 12.2571 309.841C12.2571 309.841 11.3673 310.658 11.4952 311.436C11.5675 311.876 11.4229 312.026 11.2839 312.076C11.4396 312.076 11.612 312.198 11.5341 312.582C11.4118 313.237 11.0725 314.627 11.0725 314.627H11.1337C10.4386 315.427 9.43197 316.767 9.27625 317.962V318.106L8.88696 318.957L12.2237 320.43L12.5185 319.979C12.5185 319.979 13.9978 321.647 15.6884 322.025C15.9789 322.089 16.2752 322.122 16.5727 322.125C17.5143 322.105 18.4447 321.917 19.3199 321.569C19.3199 321.569 20.5434 320.057 17.3735 319.768C17.3735 319.768 15.516 317.639 15.7051 316.739C15.7647 316.36 15.8037 315.978 15.8219 315.594C15.8219 315.511 15.8219 315.427 15.8219 315.349L16.0388 315.383L16.0777 314.694C16.1253 314.637 16.1612 314.571 16.1831 314.501C16.2051 314.43 16.2127 314.356 16.2056 314.282C16.2056 313.999 15.9498 313.954 16.2056 313.793C16.4614 313.632 16.4559 313.793 16.4559 313.387C16.4559 312.982 16.289 313.098 16.6672 312.687C17.0454 312.276 16.6283 311.542 16.6283 311.542C16.8623 311.367 17.057 311.146 17.1997 310.891C17.3425 310.636 17.4301 310.354 17.4569 310.064C17.418 309.208 20.2876 303.761 20.8771 303.555C21.4666 303.349 21.5111 302.282 21.5111 302.282C21.5111 302.282 22.3175 302.449 22.5677 302.282C22.9643 301.838 23.3181 301.358 23.6244 300.848C23.6244 300.848 26.8332 292.744 26.8777 289.676L27.089 288.981C27.089 288.981 28.3125 290.577 28.1401 291.722C27.9677 292.867 29.08 293.689 29.08 293.689V297.169C29.2023 297.775 29.2693 298.39 29.2802 299.008C29.2413 299.564 29.7807 300.153 29.5749 300.648C29.4638 301.091 29.4638 301.555 29.5749 301.999C29.5749 301.999 29.5305 303.144 29.5749 303.472C29.6194 303.8 29.4081 307.562 30.5092 309.202C30.5092 309.202 30.9708 310.386 30.5092 311.164C30.0477 311.942 30.9263 312.72 30.9263 312.72C30.9263 312.72 30.3702 313.621 30.9263 314.277C31.2432 314.69 31.385 315.211 31.3212 315.727C31.0987 316.561 30.9375 317.651 31.3212 318.412L31.4213 319.585L34.658 319.335V318.684C36.0525 319.027 37.4971 319.117 38.9235 318.951C39.4747 318.901 40.0099 318.739 40.4959 318.474C40.9818 318.21 41.4082 317.848 41.7486 317.412C41.7486 317.412 43.0499 315.16 39.5074 316.022Z" fill="url(#paint1_linear_7_2)"/>
<path d="M41.1424 317.434C40.8155 317.864 40.4023 318.222 39.9293 318.485C39.4563 318.747 38.9338 318.908 38.3951 318.957C37.0165 319.122 35.619 319.03 34.2742 318.684V319.34L31.1488 319.585L31.0542 318.418C30.6927 317.651 30.8596 316.539 31.082 315.705C31.1829 315.311 31.3111 314.925 31.4658 314.549C31.4658 314.549 34.1574 312.265 35.0528 313.993C35.2474 314.347 35.5169 314.654 35.8425 314.894C36.7819 315.517 37.8505 315.92 38.9679 316.072C42.4048 315.194 41.1424 317.434 41.1424 317.434Z" fill="#FF6484"/>
<path opacity="0.1" d="M32.8339 315.194C32.8339 315.194 32.8339 317.311 34.3799 317.273C35.9259 317.234 36.1373 316.428 35.6479 315.883C35.3142 315.497 35.0268 315.074 34.7914 314.621L32.8339 315.194Z" fill="black"/>
<path d="M19.4868 321.591C18.6458 321.937 17.7486 322.125 16.8396 322.147C16.5517 322.144 16.2649 322.112 15.9832 322.053C14.3537 321.686 12.9245 320.013 12.9245 320.013L12.6408 320.463L9.41528 318.996L9.78233 318.14V317.99C9.93248 316.822 10.8946 315.483 11.5731 314.688C11.9568 314.243 12.2571 313.954 12.2571 313.954L16.15 314.51C16.15 314.51 16.15 315.01 16.15 315.622C16.1363 316.005 16.0992 316.388 16.0388 316.767C15.8775 317.662 17.6682 319.779 17.6682 319.779C20.6713 320.068 19.4868 321.591 19.4868 321.591Z" fill="#FF6484"/>
<path d="M11.7399 312.12C11.6743 312.138 11.6052 312.138 11.5397 312.12C11.6059 312.108 11.6737 312.108 11.7399 312.12Z" fill="#444053"/>
<path opacity="0.1" d="M16.1055 314.544C16.1055 314.544 16.1055 315.044 16.1055 315.655L11.5508 314.927C11.5508 314.927 11.5508 314.838 11.6008 314.694C11.9568 314.243 12.2571 313.954 12.2571 313.954L16.1055 314.544Z" fill="black"/>
<path opacity="0.1" d="M35.8536 314.871C35.164 316.467 31.0653 316.089 31.0653 316.089C31.0884 315.96 31.0977 315.83 31.0931 315.7C31.194 315.306 31.3222 314.919 31.4768 314.543C31.4768 314.543 34.1685 312.259 35.0639 313.988C35.2605 314.336 35.5298 314.637 35.8536 314.871Z" fill="black"/>
<path d="M35.9204 314.421C35.5144 316.25 31.0654 315.844 31.0654 315.844C31.1525 315.301 31.0205 314.745 30.6983 314.299C30.1422 313.643 30.6983 312.748 30.6983 312.748C30.6983 312.748 29.8419 311.976 30.2924 311.197C30.7428 310.419 30.2924 309.241 30.2924 309.241C29.2357 307.612 29.4359 303.861 29.3914 303.538C29.3469 303.216 29.3914 302.071 29.3914 302.071C29.2834 301.629 29.2834 301.168 29.3914 300.726C29.5916 300.237 29.0689 299.664 29.1134 299.097C29.1079 298.488 29.0502 297.88 28.941 297.28V293.817C28.6443 293.587 28.4075 293.29 28.2506 292.949C28.0938 292.608 28.0215 292.235 28.04 291.86C28.2013 290.716 27.0168 289.131 27.0168 289.131L26.8165 289.821C26.7721 292.878 23.6744 300.937 23.6744 300.937C23.3793 301.441 23.0387 301.918 22.6567 302.36C22.412 302.527 21.639 302.36 21.639 302.36C21.639 302.36 21.5945 303.422 21.0272 303.622C20.46 303.822 17.6905 309.247 17.7238 310.102C17.7019 310.398 17.6177 310.685 17.4768 310.946C17.3359 311.206 17.1415 311.434 16.9063 311.614C16.9063 311.614 17.3123 312.348 16.9453 312.754C16.5782 313.159 16.7451 313.037 16.7451 313.449C16.7451 313.86 16.7451 313.693 16.5004 313.854C16.2557 314.015 16.5004 314.06 16.5004 314.343C16.5113 314.489 16.4677 314.634 16.378 314.749L16.3391 315.433L11.5675 314.671C11.5675 314.671 11.8901 313.282 12.0124 312.631C12.0847 312.248 11.9179 312.148 11.7677 312.126C11.9012 312.076 12.0402 311.926 11.9735 311.492C11.8511 310.714 12.7076 309.902 12.7076 309.902C13.2012 306.153 14.7738 302.627 17.2345 299.753C17.2345 299.509 18.0464 298.814 18.0464 298.814C18.0464 298.814 18.1298 297.702 18.825 297.591C19.5201 297.48 18.825 296.574 18.825 296.574C19.176 295.774 19.448 294.942 19.6369 294.089C19.6814 293.439 19.9094 290.382 19.9094 290.382C20.0935 289.945 20.1457 289.464 20.0596 288.998C19.8705 288.442 20.0596 288.303 20.0596 288.303C20.0596 288.303 20.2932 287.08 20.0596 286.636C19.9249 286.328 19.8768 285.99 19.9206 285.658L20.0318 284.057L20.2042 281.667C20.2042 281.667 32.8839 279.505 34.2687 281.255C34.4221 281.472 34.5334 281.715 34.5968 281.972C35.5867 285.196 35.2475 295.868 35.2475 295.868L34.6357 298.964C34.8593 299.268 34.9623 299.644 34.9249 300.02C34.8713 300.419 34.9132 300.824 35.0473 301.204C35.0473 301.204 35.0473 301.448 35.0028 302.099C34.9671 302.399 34.9822 302.704 35.0473 302.999C35.0473 302.999 35.0862 308.618 35.1251 309.763C35.1 310.328 35.258 310.885 35.5756 311.353V312.737C35.6858 312.995 35.7407 313.273 35.7368 313.554C35.7294 313.853 35.7923 314.15 35.9204 314.421Z" fill="#444053"/>
<path opacity="0.1" d="M16.8396 322.136C16.5517 322.133 16.2649 322.101 15.9832 322.041C14.3537 321.675 12.9245 320.002 12.9245 320.002L12.6408 320.452L9.41528 318.984L9.78233 318.128V317.978L13.1191 319.646C13.1191 319.646 15.7885 320.941 16.8396 322.136Z" fill="black"/>
<path opacity="0.1" d="M38.3951 318.957C37.0164 319.122 35.619 319.03 34.2742 318.684V319.34L31.1487 319.585L31.0542 318.418C32.0441 318.418 33.6402 318.456 34.3298 318.418C35.703 318.413 37.0706 318.594 38.3951 318.957Z" fill="black"/>
<path opacity="0.1" d="M13.336 311.07C13.4979 311.059 13.6602 311.08 13.8143 311.131C13.9742 311.229 14.1266 311.338 14.2703 311.459C14.3776 311.517 14.4799 311.584 14.5761 311.659C14.6929 311.775 14.743 311.948 14.8598 312.064C15.0822 312.281 15.4159 312.237 15.7273 312.337C15.7607 312.337 15.7941 312.337 15.7996 312.398C15.7999 312.414 15.7953 312.431 15.7864 312.444C15.7775 312.458 15.7647 312.469 15.7496 312.476C15.6772 312.516 15.5959 312.537 15.5132 312.537C15.4306 312.537 15.3493 312.516 15.2769 312.476C15.1341 312.394 15.0032 312.293 14.8876 312.176C14.6612 311.975 14.4015 311.815 14.1201 311.703C13.7364 311.548 13.069 311.509 12.8243 311.147C12.9864 311.082 13.1617 311.055 13.336 311.07Z" fill="black"/>
<path opacity="0.1" d="M13.0079 311.926C13.0929 311.95 13.175 311.983 13.2526 312.026L13.6696 312.237C13.3737 312.257 13.0783 312.191 12.8188 312.048C12.7245 312.013 12.6333 311.97 12.5463 311.92C12.6992 311.894 12.8556 311.896 13.0079 311.926Z" fill="black"/>
<path opacity="0.1" d="M13.564 312.643C13.6526 312.631 13.7423 312.631 13.8309 312.643C13.9909 312.701 14.1382 312.79 14.2647 312.904C14.5709 313.148 14.9519 313.279 15.3436 313.276C15.2703 313.309 15.1899 313.322 15.11 313.315H14.2313C14.1354 313.329 14.0381 313.329 13.9422 313.315C13.8161 313.287 13.6945 313.242 13.5807 313.182C13.4305 313.115 12.8132 312.937 12.8077 312.732C12.8021 312.526 13.4138 312.643 13.564 312.643Z" fill="black"/>
<path opacity="0.1" d="M33.5067 313.682C33.7751 313.704 34.0448 313.704 34.3131 313.682C34.5984 313.671 34.8752 313.583 35.1139 313.426C35.3475 313.248 35.2974 313.059 35.0027 313.048C34.7237 313.059 34.4497 313.126 34.1963 313.243C34.0653 313.298 33.9389 313.363 33.8181 313.437C33.7625 313.493 33.5623 313.687 33.5067 313.682Z" fill="black"/>
<path opacity="0.1" d="M34.5022 314.127C34.5022 314.227 34.3743 314.282 34.2798 314.316C34.0501 314.405 33.8083 314.46 33.5624 314.477C33.5012 314.477 33.3288 314.477 33.351 314.382C33.3733 314.288 33.6291 314.316 33.6903 314.304C33.9648 314.264 34.2361 314.205 34.5022 314.127Z" fill="black"/>
<path opacity="0.1" d="M20.8381 297.952C20.4297 297.667 19.9461 297.508 19.4478 297.497C19.9524 297.466 20.4497 297.629 20.8381 297.952Z" fill="black"/>
<path opacity="0.1" d="M20.46 296.307C20.8269 296.31 21.1862 296.412 21.4999 296.602L21.1551 296.502C20.9273 296.429 20.6924 296.381 20.4544 296.357C20.3209 296.357 20.1819 296.357 20.0484 296.357C19.915 296.357 19.737 296.318 19.5813 296.313C19.8538 296.313 20.1597 296.296 20.46 296.307Z" fill="black"/>
<path opacity="0.1" d="M21.7113 297.091C21.828 297.091 21.9671 297.163 21.9893 297.28C21.6982 297.141 21.3947 297.029 21.0828 296.946C20.9104 296.891 20.3821 296.657 20.2598 296.818C20.6991 296.946 21.2052 296.991 21.7113 297.091Z" fill="black"/>
<path opacity="0.1" d="M22.8235 293.472C23.3577 293.292 23.8391 292.983 24.225 292.572C24.2204 292.755 24.1708 292.933 24.0806 293.092C23.9904 293.251 23.8623 293.386 23.7078 293.484C23.3954 293.678 23.0476 293.808 22.6845 293.867C22.3227 293.93 21.9698 294.037 21.6334 294.184C21.4721 294.262 20.9716 294.74 20.8103 294.74C20.649 294.74 20.9327 294.39 21.005 294.334C21.566 293.96 22.1786 293.67 22.8235 293.472Z" fill="black"/>
<path opacity="0.1" d="M32.8338 298.758C32.6614 298.697 30.5537 299.103 30.6816 298.697C30.765 298.447 31.4491 298.541 31.6159 298.547C32.0299 298.558 32.4401 298.63 32.8338 298.758Z" fill="black"/>
<path d="M30.537 250.035C30.537 250.377 30.4997 250.718 30.4258 251.052C30.167 252.215 29.4725 253.234 28.485 253.901C27.4975 254.567 26.292 254.83 25.1163 254.636C23.9407 254.442 22.8841 253.805 22.1639 252.856C21.4437 251.907 21.1144 250.719 21.2439 249.535C21.3734 248.351 21.9517 247.261 22.86 246.49C23.7683 245.72 24.9375 245.326 26.1274 245.39C27.3173 245.454 28.4375 245.971 29.2576 246.835C30.0778 247.699 30.5356 248.844 30.537 250.035Z" fill="#FBBEBE"/>
<path d="M28.2958 251.947C28.2958 251.947 26.7887 256.349 27.6452 257.244C28.5016 258.139 21.4888 258.673 21.4888 258.673C21.4888 258.673 24.4196 253.415 24.136 252.108C23.8524 250.802 28.2958 251.947 28.2958 251.947Z" stroke="#FFD452" stroke-miterlimit="10"/>
<path opacity="0.1" d="M34.5745 281.961C34.5801 282.063 34.5801 282.165 34.5745 282.267C34.4911 284.346 30.7817 288.542 29.9253 287.825C29.0688 287.108 23.2517 285.747 23.2517 285.747C23.2517 285.747 22.3953 284.401 21.4999 284.401C20.9892 284.359 20.4892 284.231 20.0206 284.023L20.193 281.633C20.193 281.633 32.8728 279.471 34.2575 281.222C34.4096 281.446 34.5172 281.697 34.5745 281.961Z" fill="black"/>
<path d="M34.5745 281.9C34.5356 282.94 33.5846 284.513 32.5335 285.735C31.4825 286.958 30.3535 287.825 29.9253 287.481C29.6112 287.276 29.2707 287.115 28.9131 287.003C26.9834 286.297 23.2406 285.402 23.2406 285.402C23.2406 285.402 22.3842 284.057 21.4888 284.057C20.5935 284.057 18.875 283.162 18.875 283.162C18.875 283.162 19.0419 282.917 18.875 282.022C18.7082 281.128 16.0944 282.512 16.0944 282.512C16.0944 282.512 15.972 276.481 16.9063 273.546C17.8406 270.612 17.3957 266.876 17.3957 266.876C17.3957 266.876 18.0686 263.186 18.7972 260.262C19.2365 258.511 19.6981 257.038 20.0485 256.811C20.9883 256.199 25.8767 256.811 25.8767 256.811C26.8194 256.823 27.76 256.905 28.6907 257.055C28.9312 257.151 29.1369 257.318 29.2802 257.533L29.4248 257.739C30.0657 258.864 30.6107 260.041 31.0542 261.257C31.8328 263.13 34.8915 271.034 34.8915 271.034C34.8915 271.034 34.8081 271.59 34.1129 273.969C33.4178 276.348 34.6579 279.821 34.5745 281.9Z" fill="#65617D"/>
<path d="M31.0709 284.301L32.5335 285.735C32.5335 285.735 33.8793 290.376 32.1275 289.965C30.3757 289.554 28.9131 287.003 28.9131 287.003L31.0709 284.301Z" fill="#FBBEBE"/>
<path opacity="0.1" d="M34.7803 271.384C31.31 271.345 30.4147 266.493 30.4147 266.493C30.4147 266.493 30.17 261.685 29.7195 260.79C29.4513 259.915 29.3145 259.005 29.3135 258.089C29.9544 259.214 30.4995 260.391 30.943 261.607C31.7216 263.48 34.7803 271.384 34.7803 271.384Z" fill="black"/>
<path d="M34.9027 271.017C31.4324 270.978 30.537 266.126 30.537 266.126C30.537 266.126 30.2924 261.318 29.8419 260.423C29.5737 259.548 29.4369 258.638 29.4359 257.722C30.0768 258.847 30.6219 260.024 31.0654 261.24C31.8439 263.114 34.9027 271.017 34.9027 271.017Z" fill="#65617D"/>
<path opacity="0.1" d="M28.6907 259.056C28.6907 259.056 27.673 256.277 26.0046 259.056C24.9517 260.986 24.3651 263.135 24.2917 265.331L24.0025 272.99C24.2699 273.484 24.4434 274.023 24.5141 274.58C24.5141 275.136 25.5152 276.803 25.5152 276.803C25.5152 276.803 25.7599 280.022 26.6942 280.555L27.5951 283.201C27.5951 283.201 27.634 284.952 28.2458 285.646C28.4241 285.899 28.5428 286.189 28.5929 286.494C28.643 286.799 28.6232 287.112 28.5349 287.408L32.1609 286.141C32.1609 286.141 31.7494 286.291 32.1609 285.196C32.5724 284.101 31.9162 282.673 31.9162 282.673C31.9162 282.673 29.5916 277.62 29.3024 276.887C29.0132 276.153 28.6128 275.297 28.7463 274.441C28.8797 273.585 28.7796 264.498 28.991 263.114C29.2023 261.73 28.6907 259.056 28.6907 259.056Z" fill="black"/>
<path d="M29.0688 258.673C29.0688 258.673 28.0511 255.893 26.3772 258.673C25.3274 260.603 24.741 262.752 24.6643 264.948L24.3807 272.607C24.6464 273.101 24.8198 273.64 24.8923 274.197C24.8923 274.752 25.8878 276.42 25.8878 276.42C25.8878 276.42 26.1325 279.638 27.0723 280.166L27.9677 282.817C27.9677 282.817 28.0122 284.568 28.6239 285.263C28.8023 285.516 28.921 285.805 28.971 286.111C29.0211 286.416 29.0013 286.728 28.9131 287.025L32.5335 285.758C32.5335 285.758 32.1275 285.908 32.5335 284.807C32.9395 283.707 32.2777 282.273 32.2777 282.273C32.2777 282.273 29.9586 277.22 29.6695 276.487C29.3803 275.753 28.9799 274.897 29.1133 274.041C29.2468 273.185 29.1467 264.097 29.3525 262.708C29.5582 261.318 29.0688 258.673 29.0688 258.673Z" fill="#FF6484"/>
<path opacity="0.1" d="M29.1411 282.634C29.2958 282.654 29.4461 282.699 29.586 282.767C29.6973 282.823 29.7918 282.912 29.903 282.973C30.0299 283.046 30.1738 283.084 30.3201 283.084C30.1571 283.092 29.9938 283.092 29.8307 283.084C29.7291 283.091 29.627 283.078 29.5304 283.045C29.4389 283.002 29.353 282.948 29.2746 282.884C29.1748 282.81 29.0665 282.749 28.9521 282.701C28.8631 282.667 28.7685 282.656 28.7352 282.567C28.8721 282.578 29.0079 282.601 29.1411 282.634Z" fill="black"/>
<path opacity="0.1" d="M30.5203 283.729C30.6761 283.729 30.8262 283.696 30.9819 283.684C31.2068 283.676 31.4319 283.687 31.6549 283.718C31.3275 283.885 30.9576 283.951 30.5926 283.907C30.4888 283.879 30.3795 283.879 30.2757 283.907C30.1644 283.951 29.8308 284.329 29.8029 283.996C29.7751 283.662 30.3313 283.734 30.5203 283.729Z" fill="black"/>
<path opacity="0.1" d="M28.6462 245.144L28.0511 244.71C28.1152 244.731 28.1767 244.759 28.2347 244.794C28.3598 244.861 28.4726 244.95 28.5683 245.055L28.7574 245.227L28.6462 245.144Z" fill="black"/>
<path opacity="0.1" d="M29.2913 257.517C29.1831 257.761 29.01 257.97 28.7908 258.122C28.6596 258.212 28.509 258.269 28.3514 258.289C28.1304 258.311 27.9073 258.288 27.6952 258.222C27.4238 258.15 27.1565 258.062 26.8944 257.961C26.3808 257.746 25.8554 257.56 25.3205 257.405C24.9205 257.284 24.4963 257.264 24.0865 257.347C23.6767 257.431 23.2942 257.615 22.9737 257.883C22.4565 258.406 22.3341 259.217 21.8225 259.74C21.1329 260.44 20.0095 260.396 19.0419 260.257L18.8138 260.223C19.2532 258.473 19.7148 257 20.0651 256.772C21.005 256.16 25.8934 256.772 25.8934 256.772C26.8361 256.784 27.7766 256.866 28.7074 257.016C28.9489 257.119 29.1529 257.294 29.2913 257.517Z" fill="black"/>
<path opacity="0.1" d="M21.2441 250.035C21.2406 249.12 21.5079 248.224 22.0123 247.46C22.5168 246.697 23.2359 246.099 24.0793 245.743C24.9226 245.386 25.8526 245.287 26.7523 245.457C27.6519 245.628 28.4811 246.06 29.1356 246.7C29.1356 247.506 28.9743 248.368 29.2023 249.118C29.4838 249.828 29.8992 250.477 30.4258 251.03C30.1722 252.14 29.5194 253.119 28.5914 253.78C27.6634 254.441 26.5249 254.738 25.3921 254.615C24.2592 254.493 23.2109 253.958 22.4462 253.114C21.6815 252.27 21.2538 251.174 21.2441 250.035Z" fill="black"/>
<path d="M28.7574 244.983C27.8558 244.165 26.7193 243.652 25.5094 243.516C24.2995 243.381 23.0776 243.629 22.0171 244.227C21.5294 244.495 21.1135 244.876 20.8047 245.338C20.1652 246.356 20.3265 247.673 19.9928 248.823C19.6591 249.974 18.9195 250.836 18.291 251.797C17.6626 252.759 17.1398 253.898 17.379 255.021C17.5514 255.838 18.1131 256.572 18.102 257.405C18.0797 257.87 17.8829 258.309 17.5509 258.634C17.2189 258.96 16.7762 259.148 16.3112 259.162C17.1357 259.669 18.0705 259.97 19.0362 260.04C20.0095 260.179 21.1329 260.223 21.8169 259.523C22.3285 259.001 22.4509 258.189 22.9681 257.667C23.2886 257.398 23.6711 257.214 24.0809 257.13C24.4907 257.047 24.9148 257.067 25.3149 257.189C26.1269 257.378 26.8777 257.744 27.6896 257.983C27.9017 258.049 28.1248 258.072 28.3458 258.05C29.041 257.956 29.4581 257.183 29.5026 256.483C29.5471 255.927 29.4637 255.232 29.8752 254.815C30.0325 254.683 30.2019 254.566 30.3813 254.465C30.6994 254.247 30.9513 253.945 31.1092 253.593C31.2671 253.241 31.3251 252.852 31.2766 252.47C31.082 251.091 29.6082 250.246 29.1967 248.89C28.9687 248.112 29.1411 247.278 29.13 246.472C29.1189 245.666 28.8074 244.738 28.0455 244.466" fill="#444053"/>
<path opacity="0.1" d="M31.2044 252.47C31.0153 251.091 29.536 250.246 29.1244 248.89C28.8964 248.112 29.0744 247.278 29.0577 246.472C29.0682 245.909 28.8966 245.357 28.5683 244.899L28.6851 244.983C28.6239 244.922 28.5572 244.866 28.4905 244.81C28.3965 244.712 28.2899 244.626 28.1735 244.555L27.9621 244.41L28.0734 244.516L27.9566 244.432C28.2855 244.89 28.4572 245.442 28.446 246.005C28.446 246.811 28.2847 247.673 28.5127 248.418C28.9076 249.757 30.4035 250.641 30.5926 252.003C30.6404 252.385 30.5822 252.774 30.4243 253.126C30.2664 253.478 30.0149 253.779 29.6973 253.998C29.5179 254.099 29.3485 254.216 29.1912 254.348C28.7796 254.76 28.8631 255.46 28.8186 256.016C28.763 256.716 28.3626 257.489 27.6674 257.583C27.4446 257.603 27.22 257.58 27.0056 257.516C26.1992 257.305 25.4429 256.911 24.6309 256.722C24.2309 256.599 23.8066 256.578 23.3966 256.662C22.9866 256.745 22.6041 256.93 22.2841 257.2C21.7724 257.717 21.6445 258.534 21.1329 259.056C20.4433 259.751 19.3199 259.712 18.3522 259.573C17.7152 259.501 17.0884 259.358 16.4836 259.145C16.4023 259.153 16.3203 259.153 16.239 259.145C17.0641 259.651 17.9985 259.952 18.964 260.023C19.9372 260.162 21.0606 260.207 21.7446 259.506C22.2563 258.984 22.3842 258.172 22.8958 257.65C23.2163 257.381 23.5988 257.197 24.0086 257.114C24.4184 257.03 24.8426 257.05 25.2427 257.172C26.0546 257.361 26.811 257.728 27.6173 257.967C27.8312 258.033 28.0563 258.056 28.2791 258.033C28.9743 257.939 29.3914 257.166 29.4303 256.466C29.4748 255.91 29.3914 255.215 29.8029 254.799C29.9602 254.666 30.1297 254.549 30.309 254.448C30.6244 254.231 30.8745 253.932 31.0323 253.584C31.1901 253.235 31.2496 252.85 31.2044 252.47Z" fill="black"/>
<path opacity="0.1" d="M49.1006 318.851C49.9904 321.814 38.0281 323.731 23.9413 323.186C11.3116 322.703 1.40699 320.38 0.67846 317.951C-0.0500688 315.522 8.5588 313.543 21.0383 313.504C34.9582 313.504 48.2108 315.888 49.1006 318.851Z" fill="#FFD452"/>
</g>
<defs>
<linearGradient id="paint0_linear_7_2" x1="433.725" y1="338.171" x2="433.725" y2="212.528" gradientUnits="userSpaceOnUse">
<stop stop-color="#808080" stop-opacity="0.25"/>
<stop offset="0.54" stop-color="#808080" stop-opacity="0.12"/>
<stop offset="1" stop-color="#808080" stop-opacity="0.1"/>
</linearGradient>
<linearGradient id="paint1_linear_7_2" x1="3407.42" y1="57405.1" x2="3407.42" y2="46177.6" gradientUnits="userSpaceOnUse">
<stop stop-color="#808080" stop-opacity="0.25"/>
<stop offset="0.54" stop-color="#808080" stop-opacity="0.12"/>
<stop offset="1" stop-color="#808080" stop-opacity="0.1"/>
</linearGradient>
<clipPath id="clip0_7_2">
<rect width="604" height="340" fill="white"/>
</clipPath>
</defs>
</svg>
