<svg width="498" height="404" viewBox="0 0 498 404" fill="none" xmlns="http://www.w3.org/2000/svg">
<g clip-path="url(#clip0_2_2)">
<path d="M432.4 249.055C432.4 249.055 459.938 195.168 447.851 149.458C442.779 130.246 443.708 109.971 451.173 91.5792C454.734 82.8675 459.086 74.4997 464.175 66.5805" stroke="#535461" stroke-width="2" stroke-miterlimit="10"/>
<path d="M456.729 37.7019C455.415 44.6931 464.278 67.3349 464.278 67.3349C464.278 67.3349 480.757 49.4398 482.071 42.4533C482.611 39.136 481.831 35.7392 479.898 32.9881C477.965 30.2371 475.031 28.3499 471.724 27.7296C468.416 27.1094 464.997 27.8052 462.196 29.6684C459.395 31.5317 457.435 34.4148 456.733 37.7019H456.729Z" fill="#FFD452"/>
<path d="M428.506 72.494C431.209 79.0541 450.972 93.2708 450.972 93.2708C450.972 93.2708 455.068 69.3076 452.379 62.7241C451.745 61.1477 450.805 59.7122 449.613 58.5002C448.421 57.2883 447.001 56.3239 445.434 55.6625C443.867 55.0012 442.185 54.656 440.484 54.6469C438.783 54.6377 437.097 54.9648 435.523 55.6093C433.949 56.2538 432.518 57.2029 431.313 58.402C430.108 59.601 429.153 61.0264 428.502 62.5959C427.851 64.1653 427.518 65.8479 427.521 67.5467C427.524 69.2455 427.864 70.9269 428.52 72.494H428.506Z" fill="#FFD452"/>
<path d="M416.973 138.821C422.632 143.142 446.866 145.428 446.866 145.428C446.866 145.428 438.289 122.674 432.63 118.359C431.285 117.332 429.75 116.58 428.114 116.145C426.477 115.711 424.771 115.603 423.093 115.827C421.415 116.051 419.797 116.603 418.332 117.451C416.868 118.3 415.585 119.428 414.557 120.772C413.528 122.115 412.775 123.648 412.341 125.282C411.906 126.916 411.797 128.62 412.022 130.296C412.246 131.972 412.799 133.588 413.648 135.051C414.498 136.513 415.628 137.795 416.973 138.821Z" fill="#FFD452"/>
<path d="M419.591 190.97C424.438 196.18 447.941 202.525 447.941 202.525C447.941 202.525 443.338 178.651 438.491 173.44C436.156 170.967 432.938 169.516 429.537 169.404C426.136 169.291 422.828 170.525 420.335 172.838C417.841 175.151 416.364 178.354 416.226 181.749C416.087 185.145 417.299 188.458 419.596 190.965L419.591 190.97Z" fill="#FFD452"/>
<path d="M477.327 99.606C471.391 103.537 447.058 104.198 447.058 104.198C447.058 104.198 457.146 82.0717 463.082 78.1403C464.493 77.2059 466.075 76.5583 467.737 76.2344C469.399 75.9105 471.108 75.9167 472.768 76.2526C474.428 76.5885 476.005 77.2475 477.409 78.1921C478.814 79.1367 480.018 80.3483 480.954 81.7578C481.889 83.1672 482.538 84.7469 482.862 86.4067C483.187 88.0664 483.18 89.7737 482.844 91.4311C482.508 93.0884 481.848 94.6634 480.902 96.0661C479.956 97.4687 478.743 98.6716 477.332 99.606H477.327Z" fill="#FFD452"/>
<path d="M479.593 160.634C472.752 162.611 449.334 155.948 449.334 155.948C449.334 155.948 465.587 137.851 472.428 135.874C475.695 134.982 479.183 135.409 482.137 137.064C485.091 138.718 487.275 141.467 488.216 144.716C489.157 147.966 488.78 151.454 487.167 154.428C485.553 157.403 482.833 159.623 479.593 160.61V160.634Z" fill="#FFD452"/>
<path d="M473.648 220.246C467.239 223.348 443.037 220.757 443.037 220.757C443.037 220.757 455.997 200.177 462.401 197.075C463.925 196.337 465.579 195.905 467.27 195.805C468.96 195.705 470.654 195.939 472.254 196.493C473.854 197.046 475.329 197.909 476.595 199.032C477.861 200.155 478.894 201.516 479.633 203.038C480.372 204.559 480.804 206.211 480.905 207.9C481.005 209.588 480.771 211.279 480.216 212.877C479.662 214.475 478.798 215.948 477.673 217.213C476.549 218.477 475.186 219.508 473.662 220.246H473.648Z" fill="#FFD452"/>
<path d="M456.729 37.7019C455.415 44.6931 464.278 67.3349 464.278 67.3349C464.278 67.3349 480.757 49.4398 482.071 42.4533C482.611 39.136 481.831 35.7392 479.898 32.9881C477.965 30.2371 475.031 28.3499 471.724 27.7296C468.416 27.1094 464.997 27.8052 462.196 29.6684C459.395 31.5317 457.435 34.4148 456.733 37.7019H456.729Z" fill="#FC6681"/>
<path d="M428.506 72.494C431.209 79.0541 450.972 93.2708 450.972 93.2708C450.972 93.2708 455.068 69.3076 452.379 62.7241C451.745 61.1477 450.805 59.7122 449.613 58.5002C448.421 57.2883 447.001 56.3239 445.434 55.6625C443.867 55.0012 442.185 54.656 440.484 54.6469C438.783 54.6377 437.097 54.9648 435.523 55.6093C433.949 56.2538 432.518 57.2029 431.313 58.402C430.108 59.601 429.153 61.0264 428.502 62.5959C427.851 64.1653 427.518 65.8479 427.521 67.5467C427.524 69.2455 427.864 70.9269 428.52 72.494H428.506Z" fill="#FC6681"/>
<path d="M416.973 138.821C422.632 143.142 446.866 145.428 446.866 145.428C446.866 145.428 438.289 122.674 432.63 118.359C431.285 117.332 429.75 116.58 428.114 116.145C426.477 115.711 424.771 115.603 423.093 115.827C421.415 116.051 419.797 116.603 418.332 117.451C416.868 118.3 415.585 119.428 414.557 120.772C413.528 122.115 412.775 123.648 412.341 125.282C411.906 126.916 411.797 128.62 412.022 130.296C412.246 131.972 412.799 133.588 413.648 135.051C414.498 136.513 415.628 137.795 416.973 138.821Z" fill="#FC6681"/>
<path d="M419.591 190.97C424.438 196.18 447.941 202.525 447.941 202.525C447.941 202.525 443.338 178.651 438.491 173.44C436.156 170.967 432.938 169.516 429.537 169.404C426.136 169.291 422.828 170.525 420.335 172.838C417.841 175.151 416.364 178.354 416.226 181.749C416.087 185.145 417.299 188.458 419.596 190.965L419.591 190.97Z" fill="#FC6681"/>
<path d="M477.327 99.606C471.391 103.537 447.058 104.198 447.058 104.198C447.058 104.198 457.146 82.0717 463.082 78.1403C464.493 77.2059 466.075 76.5583 467.737 76.2344C469.399 75.9105 471.108 75.9167 472.768 76.2526C474.428 76.5885 476.005 77.2475 477.409 78.1921C478.814 79.1367 480.018 80.3483 480.954 81.7578C481.889 83.1672 482.538 84.7469 482.862 86.4067C483.187 88.0664 483.18 89.7737 482.844 91.4311C482.508 93.0884 481.848 94.6634 480.902 96.0661C479.956 97.4687 478.743 98.6716 477.332 99.606H477.327Z" fill="#FC6681"/>
<path d="M479.593 160.634C472.752 162.611 449.334 155.948 449.334 155.948C449.334 155.948 465.587 137.851 472.428 135.874C475.695 134.982 479.183 135.409 482.137 137.064C485.091 138.718 487.275 141.467 488.216 144.716C489.157 147.966 488.78 151.454 487.167 154.428C485.553 157.403 482.833 159.623 479.593 160.61V160.634Z" fill="#FC6681"/>
<path d="M473.648 220.246C467.239 223.348 443.037 220.757 443.037 220.757C443.037 220.757 455.997 200.177 462.401 197.075C463.925 196.337 465.579 195.905 467.27 195.805C468.96 195.705 470.654 195.939 472.254 196.493C473.854 197.046 475.329 197.909 476.595 199.032C477.861 200.155 478.894 201.516 479.633 203.038C480.372 204.559 480.804 206.211 480.905 207.9C481.005 209.588 480.771 211.279 480.216 212.877C479.662 214.475 478.798 215.948 477.673 217.213C476.549 218.477 475.186 219.508 473.662 220.246H473.648Z" fill="#FC6681"/>
<path d="M66.9743 148.619C66.9743 148.619 32.0232 93.7581 27.8004 70.3291C23.5775 46.9002 15.601 25.3455 15.601 25.3455" stroke="#535461" stroke-width="2" stroke-miterlimit="10"/>
<path d="M7.62454 72.2034L29.6772 74.0777C29.6772 74.0777 17.9471 94.2266 7.62454 72.2034Z" fill="#FFD452"/>
<path d="M46.0994 60.0204L28.6356 73.9887C28.6356 73.9887 51.2606 82.9808 46.0994 60.0204Z" fill="#FFD452"/>
<path d="M4.80936 52.9917L24.6661 55.6485C24.6661 55.6485 7.15538 69.8605 4.80936 52.9917Z" fill="#FFD452"/>
<path d="M37.6537 45.963L24.5442 55.1518C24.5442 55.1518 40.4689 61.8947 37.6537 45.963Z" fill="#FFD452"/>
<path d="M19.6784 37.6176C19.6784 37.6176 3.40175 33.3113 1.05573 34.2485C-1.29029 35.1857 0.117323 45.4944 6.68617 45.963C13.255 46.4316 19.6784 37.6176 19.6784 37.6176Z" fill="#FFD452"/>
<path d="M30.6156 25.3455C30.6156 25.3455 20.2931 35.1857 19.8239 37.5286C19.3547 39.8715 28.2696 45.4944 32.9616 37.5286C37.6537 29.5627 30.6156 25.3455 30.6156 25.3455Z" fill="#FFD452"/>
<path d="M11.3829 30.9684C8.79156 30.9684 6.69086 28.8705 6.69086 26.2826C6.69086 23.6947 8.79156 21.5968 11.3829 21.5968C13.9743 21.5968 16.075 23.6947 16.075 26.2826C16.075 28.8705 13.9743 30.9684 11.3829 30.9684Z" fill="#FFD037"/>
<path d="M19.8286 28.6255C17.2372 28.6255 15.1365 26.5276 15.1365 23.9397C15.1365 21.3518 17.2372 19.2539 19.8286 19.2539C22.42 19.2539 24.5207 21.3518 24.5207 23.9397C24.5207 26.5276 22.42 28.6255 19.8286 28.6255Z" fill="#FFD037"/>
<path d="M10.2287 124.108C12.0539 101.527 22.3389 79.7665 38.4795 67.0212C55.7556 53.3761 77.5784 50.8271 97.2381 42.655C117.541 34.1925 135.6 19.6431 155.706 10.5714C171.979 3.25021 189.687 -0.33937 207.53 0.0660475C225.374 0.471465 242.9 4.86159 258.823 12.9143C280.707 23.9446 302.881 49.7306 327.252 51.6705C344.612 53.0528 379.39 35.6826 392.94 52.1157C395.413 55.1146 396.37 59.3318 397.435 63.3006C406.022 95.2531 427.169 120.936 451.248 139.323C461.449 147.101 473.864 157.532 471.635 171.472C470.434 178.97 465.16 184.471 461.238 190.572C453.022 203.34 450.357 220.701 454.275 235.986C454.355 236.291 454.439 236.595 454.523 236.923L464.771 242.125C470.195 244.875 476.032 248.094 478.261 253.75C480.55 259.617 478.143 266.257 474.92 271.673C472.611 275.548 469.852 279.25 467.915 283.285C467.801 284.608 467.604 285.923 467.323 287.221C466.887 289.174 466.258 291.08 465.447 292.909C465.273 299.268 467.685 305.697 471.077 311.184C475.3 318.03 480.93 323.868 485.674 330.349C492.266 339.294 497.207 349.79 497.916 360.905C498.624 372.02 494.664 383.744 486.045 390.81C478.134 397.295 467.445 399.244 457.226 399.713C454.636 399.841 452.048 399.895 449.461 399.877C431.237 399.877 413.107 396.531 395.15 393.185L375.72 389.568C366.806 387.905 357.492 386.03 348.976 382.83C349.21 384.615 349.556 386.383 350.013 388.125C351.432 393.198 352.049 398.461 351.843 403.724H256.2C256.2 403.803 256.167 403.883 256.148 403.963H196.878L196.982 403.724H196.878C196.878 403.724 197.784 400.875 198.995 395.688C197.605 395.016 196.31 394.165 195.142 393.157C192.398 391.357 190.175 388.868 188.695 385.941C188.695 385.941 185.843 334.941 188.63 305.978C157.911 285.567 131.537 255.662 99.2791 238.217C82.5097 229.178 64.2577 223.555 48.7223 211.869C39.9713 205.215 32.4511 197.087 26.5008 187.849C14.7425 169.757 8.4035 146.708 10.2287 124.108Z" fill="url(#paint0_linear_2_2)"/>
<path d="M389.473 55.8032C391.885 58.7271 392.814 62.8319 393.855 66.707C402.226 97.8629 422.843 122.937 446.326 140.827C456.269 148.409 468.379 158.581 466.202 172.17C465.034 179.471 459.891 184.822 456.062 190.792C448.048 203.242 445.454 220.172 449.273 235.072C453.618 252.03 465.752 267.873 461.993 285.004C459.675 295.575 451.811 303.073 444.248 309.53C432.452 319.598 420.279 329.027 407.73 337.818C399.317 343.713 390.369 349.448 380.567 350.193C371.934 350.854 363.479 347.578 355.287 344.34C348.127 341.529 340.784 338.572 335.003 332.907C331.249 329.21 328.218 324.435 324.028 321.413C314.175 314.305 301.535 318.812 290.245 321.839C263.379 328.962 234.855 326.355 209.73 314.478C170.837 296.203 141.193 257.897 103.164 237.331C86.8076 228.484 69.0153 222.997 53.8694 211.606C45.3355 205.116 38.0026 197.187 32.2015 188.177C20.7341 170.535 14.5547 148.043 16.333 126.029C18.1113 104.015 28.1429 82.7934 43.8753 70.3666C60.7198 57.0636 81.9935 54.5802 101.165 46.5909C120.961 38.3392 138.566 24.1553 158.169 15.3085C174.034 8.16753 191.299 4.66474 208.697 5.05718C226.095 5.44963 243.184 9.72735 258.71 17.5764C280.045 28.3303 301.666 53.4743 325.431 55.3627C342.369 56.7403 376.251 39.8012 389.473 55.8032Z" fill="#FFD452"/>
<path opacity="0.2" d="M199.431 174.274C199.431 174.593 199.431 174.907 199.431 175.211C199.431 184.859 206.783 195.979 220.226 195.979C224.205 195.989 228.103 194.849 231.449 192.699C230.864 192.763 230.274 192.792 229.685 192.788C226.396 192.797 223.199 191.699 220.611 189.672C222.129 189.639 223.599 189.136 224.818 188.232C226.037 187.328 226.944 186.067 227.414 184.625C226.958 184.697 226.497 184.735 226.035 184.738C225.386 184.736 224.739 184.652 224.111 184.489C225.766 184.155 227.254 183.258 228.323 181.952C229.391 180.646 229.974 179.011 229.971 177.325V177.236C228.965 177.801 227.84 178.122 226.687 178.173C228.238 177.139 229.335 175.554 229.755 173.74C230.176 171.926 229.887 170.021 228.949 168.412C227.113 170.669 224.822 172.515 222.226 173.831C219.63 175.146 216.785 175.903 213.878 176.05C213.996 175.5 214.057 174.94 214.061 174.377C214.064 172.909 213.624 171.473 212.799 170.258C211.973 169.043 210.8 168.105 209.432 167.565C208.064 167.026 206.566 166.911 205.131 167.235C203.697 167.559 202.394 168.307 201.392 169.382C199.755 169.068 198.185 168.472 196.752 167.62C197.297 169.307 198.44 170.736 199.966 171.641C198.509 171.477 197.086 171.097 195.743 170.511C196.743 171.966 197.982 173.241 199.407 174.284L199.431 174.274Z" fill="black"/>
<path d="M256.561 179.7C271.848 224.342 270.112 239.397 270.112 239.397L266.827 264.701C266.827 264.701 332.985 274.072 322.663 243.146C316.746 225.415 318.074 196.897 320.289 175.797C321.936 160.09 324.07 148.493 324.07 148.493L248.059 156.459C251.344 164.982 254.159 172.7 256.561 179.7Z" fill="#FFD5D8"/>
<path opacity="0.1" d="M248.059 156.459C251.344 164.973 254.159 172.7 256.58 179.7C266.005 186.529 277.513 189.873 289.135 189.161C300.757 188.449 311.77 183.725 320.289 175.797C321.936 160.09 324.07 148.493 324.07 148.493L248.059 156.459Z" fill="black"/>
<path d="M286.046 188.322C258.319 188.322 235.841 165.875 235.841 138.184C235.841 110.494 258.319 88.0461 286.046 88.0461C313.773 88.0461 336.251 110.494 336.251 138.184C336.251 165.875 313.773 188.322 286.046 188.322Z" fill="#FFD5D8"/>
<path d="M252.282 267.512L281.842 254.86L276.681 215.5C272.362 216.002 268.106 216.944 263.979 218.311C252.596 221.994 237.235 230.312 234.002 248.689C234 248.72 234 248.752 234.002 248.783C228.822 278.758 252.282 267.512 252.282 267.512Z" fill="#FFD5D8"/>
<path opacity="0.05" d="M233.983 248.675L237.953 254.626L253.849 255.685V245.016C253.849 245.016 257.659 232.603 257.659 231.666C257.659 230.729 264.012 219.6 264.012 219.6L266.574 217.608L263.961 218.297C252.578 221.98 237.192 230.298 233.983 248.675Z" fill="black"/>
<path d="M266.574 217.608L257.425 234.712V255.798L244.756 259.078L252.733 237.054C252.733 237.054 261.882 219.483 266.574 217.608Z" fill="#FFD452"/>
<path d="M349.408 398.714C349.609 393.583 349.008 388.451 347.625 383.504C341.637 361.533 351.754 290.023 351.754 290.023C351.754 290.023 348.938 229.107 311.402 218.799C275.559 208.958 250.405 249.523 248.219 253.206C248.111 253.38 248.059 253.473 248.059 253.473L233.139 246.956L233.045 246.913C233.045 246.988 233.045 247.068 233.045 247.148C232.927 250.479 230.361 257.049 226.809 264.644C220.915 277.258 216.221 290.397 212.789 303.888C209.018 318.695 206.752 333.844 206.028 349.106C204.569 379.025 198.324 398.714 198.324 398.714H349.408Z" fill="#FFD452"/>
<path opacity="0.1" d="M212.766 303.869L210.739 317.416L248.275 253.22L248.2 253.188L233.261 246.66L233.12 246.937L233.021 247.129C232.904 250.461 230.337 257.03 226.785 264.626C220.891 277.239 216.197 290.378 212.766 303.869Z" fill="black"/>
<path opacity="0.1" d="M309.248 68.8109C329.03 66.5805 349.961 71.4256 365.36 84.0257C380.76 96.6258 389.759 117.351 386.301 136.928C383.406 153.216 372.474 168.843 376.373 184.916C380.075 200.182 395.563 209.076 409.583 216.193L458.563 241.056C463.851 243.741 469.561 246.876 471.701 252.391C473.934 258.112 471.588 264.574 468.445 269.864C465.301 275.155 461.289 280.084 459.821 286.049C457.944 293.654 460.6 301.728 464.696 308.4C468.792 315.073 474.296 320.771 478.927 327.087C485.369 335.85 490.169 346.098 490.882 356.931C491.595 367.765 487.71 379.198 479.312 386.091C471.603 392.417 461.181 394.296 451.211 394.788C431.213 395.772 411.328 392.089 391.622 388.424L372.68 384.896C355.24 381.649 336.335 377.572 324.99 363.946C311.852 348.192 313.368 325.297 315.948 304.97C318.529 284.643 320.978 262.095 309.056 245.405C301.262 234.473 288.214 227.692 282.016 215.786C270.67 194.011 287.177 167.189 281.851 143.231C280.341 136.446 277.112 130.171 275.1 123.518C271.519 111.677 271.139 94.6062 277.277 83.3322C282.921 73 298.607 70.0058 309.248 68.8109Z" fill="black"/>
<path d="M310.187 68.8109C329.968 66.5805 350.9 71.4256 366.299 84.0257C381.698 96.6258 390.698 117.351 387.239 136.928C384.344 153.216 373.412 168.843 377.311 184.916C381.013 200.182 396.502 209.076 410.521 216.193L459.502 241.056C464.79 243.741 470.5 246.876 472.639 252.391C474.873 258.112 472.527 264.574 469.383 269.864C466.24 275.155 462.228 280.084 460.759 286.049C458.882 293.654 461.538 301.728 465.634 308.4C469.73 315.073 475.234 320.771 479.865 327.087C486.307 335.85 491.107 346.098 491.821 356.931C492.534 367.765 488.649 379.198 480.25 386.091C472.541 392.417 462.12 394.296 452.149 394.788C432.152 395.772 412.267 392.089 392.56 388.424L373.618 384.896C356.178 381.649 337.274 377.572 325.928 363.946C312.791 348.192 314.306 325.297 316.887 304.97C319.468 284.643 321.917 262.095 309.994 245.405C302.201 234.473 289.152 227.692 282.954 215.786C271.609 194.011 288.115 167.189 282.79 143.231C281.279 136.446 278.051 130.171 276.038 123.518C272.458 111.677 272.078 94.6062 278.215 83.3322C283.86 73 299.545 70.0058 310.187 68.8109Z" fill="#FFD452"/>
<path opacity="0.1" d="M310.187 68.8109C329.968 66.5805 350.9 71.4256 366.299 84.0257C381.698 96.6258 390.698 117.351 387.239 136.928C384.344 153.216 373.412 168.843 377.311 184.916C381.013 200.182 396.502 209.076 410.521 216.193L459.502 241.056C464.79 243.741 470.5 246.876 472.639 252.391C474.873 258.112 472.527 264.574 469.383 269.864C466.24 275.155 462.228 280.084 460.759 286.049C458.882 293.654 461.538 301.728 465.634 308.4C469.73 315.073 475.234 320.771 479.865 327.087C486.307 335.85 491.107 346.098 491.821 356.931C492.534 367.765 488.649 379.198 480.25 386.091C472.541 392.417 462.12 394.296 452.149 394.788C432.152 395.772 412.267 392.089 392.56 388.424L373.618 384.896C356.178 381.649 337.274 377.572 325.928 363.946C312.791 348.192 314.306 325.297 316.887 304.97C319.468 284.643 321.917 262.095 309.994 245.405C302.201 234.473 289.152 227.692 282.954 215.786C271.609 194.011 288.115 167.189 282.79 143.231C281.279 136.446 278.051 130.171 276.038 123.518C272.458 111.677 272.078 94.6062 278.215 83.3322C283.86 73 299.545 70.0058 310.187 68.8109Z" fill="black"/>
<path d="M266.574 217.608L231.384 282.127L206.985 269.621C206.985 269.621 250.621 210.58 256.252 211.517C261.882 212.454 266.574 217.608 266.574 217.608Z" fill="#FFD452"/>
<path d="M201.608 262.826L209.584 239.397C209.584 239.397 215.215 181.762 237.268 179.888C259.32 178.013 231.637 241.272 231.637 241.272C231.637 241.272 221.784 259.546 225.537 273.135C229.291 286.724 201.608 262.826 201.608 262.826Z" fill="#FFD5D8"/>
<path opacity="0.1" d="M314.175 306.713L259.32 372.942C259.32 372.942 206.769 410.429 192.224 382.783C192.224 382.783 186.124 307.341 193.162 289.535C200.2 271.729 202.546 260.483 202.546 260.483C202.546 260.483 231.637 271.729 233.514 263.763L232.81 339.908C232.81 339.908 265.889 218.311 297.795 233.306C298.239 233.515 298.677 233.726 299.109 233.938C326.416 247.499 333.633 283.228 314.175 306.713Z" fill="black"/>
<path d="M312.298 305.308L257.443 371.537C257.443 371.537 204.892 409.023 190.347 381.377C190.347 381.377 186.124 305.936 193.162 288.13C200.2 270.324 200.67 259.078 200.67 259.078C200.67 259.078 229.76 270.324 231.637 262.358L230.464 356.777C230.464 356.777 264.012 216.906 295.918 231.9C296.362 232.109 296.8 232.32 297.232 232.533C324.54 246.093 331.756 281.823 312.298 305.308Z" fill="#FFD452"/>
<path d="M173.202 57.8228C171.129 57.8228 169.449 56.1444 169.449 54.0741C169.449 52.0038 171.129 50.3255 173.202 50.3255C175.275 50.3255 176.956 52.0038 176.956 54.0741C176.956 56.1444 175.275 57.8228 173.202 57.8228Z" fill="white"/>
<path d="M185.402 107.961C184.365 107.961 183.525 107.122 183.525 106.086C183.525 105.051 184.365 104.212 185.402 104.212C186.438 104.212 187.278 105.051 187.278 106.086C187.278 107.122 186.438 107.961 185.402 107.961Z" fill="white"/>
<path d="M255.782 55.9484C254.746 55.9484 253.906 55.1092 253.906 54.0741C253.906 53.0389 254.746 52.1998 255.782 52.1998C256.819 52.1998 257.659 53.0389 257.659 54.0741C257.659 55.1092 256.819 55.9484 255.782 55.9484Z" fill="white"/>
<path d="M411.812 132.182C410.775 132.182 409.935 131.342 409.935 130.307C409.935 129.272 410.775 128.433 411.812 128.433C412.848 128.433 413.689 129.272 413.689 130.307C413.689 131.342 412.848 132.182 411.812 132.182Z" fill="white"/>
<path d="M303.172 267.746C302.136 267.746 301.295 266.907 301.295 265.872C301.295 264.837 302.136 263.998 303.172 263.998C304.209 263.998 305.049 264.837 305.049 265.872C305.049 266.907 304.209 267.746 303.172 267.746Z" fill="white"/>
<path d="M430.327 181.528C429.29 181.528 428.45 180.689 428.45 179.653C428.45 178.618 429.29 177.779 430.327 177.779C431.363 177.779 432.203 178.618 432.203 179.653C432.203 180.689 431.363 181.528 430.327 181.528Z" fill="white"/>
<path d="M104.229 70.0058C103.193 70.0058 102.352 69.1666 102.352 68.1315C102.352 67.0963 103.193 66.2571 104.229 66.2571C105.266 66.2571 106.106 67.0963 106.106 68.1315C106.106 69.1666 105.266 70.0058 104.229 70.0058Z" fill="white"/>
<path d="M210.739 145.916C209.702 145.916 208.862 145.077 208.862 144.041C208.862 143.006 209.702 142.167 210.739 142.167C211.775 142.167 212.616 143.006 212.616 144.041C212.616 145.077 211.775 145.916 210.739 145.916Z" fill="white"/>
<path d="M50.2706 121.55C49.2341 121.55 48.3938 120.71 48.3938 119.675C48.3938 118.64 49.2341 117.801 50.2706 117.801C51.3072 117.801 52.1475 118.64 52.1475 119.675C52.1475 120.71 51.3072 121.55 50.2706 121.55Z" fill="white"/>
<path d="M172.986 261.041C171.95 261.041 171.11 260.202 171.11 259.167C171.11 258.132 171.95 257.292 172.986 257.292C174.023 257.292 174.863 258.132 174.863 259.167C174.863 260.202 174.023 261.041 172.986 261.041Z" fill="white"/>
<path d="M104.229 123.803H108.128V119.91H108.78V123.803H112.675V124.455H108.78V128.344H108.128V124.455H104.229V123.803Z" fill="white"/>
<path d="M299.418 356.402H301.15V354.668H301.441V356.402H303.172V356.688H301.441V358.417H301.15V356.688H299.418V356.402Z" fill="white"/>
<path d="M222 303.452H223.736V301.718H224.022V303.452H225.753V303.738H224.022V305.467H223.736V303.738H222V303.452Z" fill="white"/>
<path d="M106.575 195.679H108.311V193.945H108.597V195.679H110.329V195.965H108.597V197.694H108.311V195.965H106.575V195.679Z" fill="white"/>
<path d="M185.402 222.856H187.138V221.123H187.424V222.856H189.155V223.142H187.424V224.871H187.138V223.142H185.402V222.856Z" fill="white"/>
<path d="M408.274 193.805H410.01V192.071H410.296V193.805H412.028V194.09H410.296V195.819H410.01V194.09H408.274V193.805Z" fill="white"/>
<path d="M220.123 83.6883H221.859V81.9546H222.145V83.6883H223.876V83.9742H222.145V85.7032H221.859V83.9742H220.123V83.6883Z" fill="white"/>
<path d="M371.676 67.288H373.407V65.5543H373.698V67.288H375.43V67.5739H373.698V69.3029H373.407V67.5739H371.676V67.288Z" fill="white"/>
<path opacity="0.2" d="M159.703 71.9223L162.411 78.8245V107.042H152.811V112.141H147.401L142.296 107.042H134.474L123.955 96.5368V71.9223H159.703ZM127.539 94.7328L133.573 100.74H143.192L148.297 105.838V100.74H156.414V75.521H127.558L127.539 94.7328ZM133.573 82.4232V92.9194H137.177V82.4232H133.573ZM143.192 82.4232V92.9194H146.795V82.4232H143.192Z" fill="black"/>
<path opacity="0.2" d="M94.9999 161.168L102.718 157.954L92.3958 133.142L84.6774 136.343L94.9999 161.168ZM87.122 131.371C88.0112 131.006 88.7723 130.386 89.3088 129.59C89.8453 128.793 90.1333 127.855 90.1363 126.895C90.1392 125.935 89.857 124.996 89.3254 124.196C88.7938 123.396 88.0366 122.772 87.1496 122.401C86.2626 122.031 85.2856 121.932 84.3421 122.116C83.3987 122.301 82.5311 122.76 81.8491 123.437C81.1672 124.114 80.7015 124.977 80.5109 125.918C80.3203 126.859 80.4133 127.835 80.7783 128.723C81.2718 129.912 82.2157 130.856 83.404 131.352C84.5923 131.848 85.9287 131.855 87.122 131.371ZM66.111 173.154L73.8106 169.959L68.7854 157.883C67.589 155.006 66.111 151.29 70.0617 149.65C74.0124 148.01 75.9877 150.859 77.3344 154.092L82.4581 166.388L90.1671 163.188L79.8446 138.376L72.4452 141.445L73.8528 144.829L73.7449 144.875C71.9056 143.353 68.5321 142.34 64.7784 143.901C56.9709 147.139 57.67 152.869 60.443 159.542L66.1157 173.168L66.111 173.154Z" fill="black"/>
<path opacity="0.2" d="M229.479 31.3714C230.996 31.3751 232.479 31.828 233.739 32.6728C234.999 33.5176 235.98 34.7164 236.558 36.1178C237.136 37.5191 237.285 39.0602 236.986 40.5461C236.687 42.032 235.954 43.3962 234.88 44.4663C233.805 45.5363 232.437 46.2642 230.948 46.5579C229.459 46.8517 227.916 46.6981 226.515 46.1166C225.113 45.5351 223.916 44.5518 223.074 43.291C222.232 42.0301 221.783 40.5483 221.784 39.0327C221.783 38.0243 221.981 37.0255 222.367 36.0939C222.754 35.1623 223.321 34.3162 224.036 33.6043C224.751 32.8923 225.6 32.3285 226.534 31.9453C227.468 31.5621 228.469 31.3671 229.479 31.3714ZM229.479 44.023C230.465 44.023 231.43 43.7309 232.25 43.1836C233.07 42.6363 233.709 41.8584 234.087 40.9482C234.464 40.038 234.563 39.0365 234.371 38.0703C234.178 37.1041 233.703 36.2165 233.006 35.5199C232.308 34.8233 231.419 34.3489 230.452 34.1568C229.484 33.9646 228.481 34.0632 227.57 34.4402C226.659 34.8172 225.88 35.4556 225.332 36.2747C224.784 37.0939 224.491 38.0569 224.491 39.042C224.494 40.3623 225.02 41.6278 225.955 42.5614C226.89 43.495 228.157 44.0206 229.479 44.023ZM219.701 31.0621C219.701 31.4162 219.806 31.7622 220.003 32.0566C220.2 32.3509 220.479 32.5804 220.807 32.7159C221.134 32.8513 221.495 32.8868 221.843 32.8177C222.19 32.7486 222.51 32.5782 222.76 32.3278C223.011 32.0775 223.182 31.7586 223.251 31.4113C223.32 31.0641 223.284 30.7042 223.149 30.3771C223.013 30.0501 222.783 29.7705 222.489 29.5738C222.194 29.3771 221.847 29.2722 221.493 29.2722C221.258 29.2715 221.025 29.3173 220.807 29.4067C220.59 29.4962 220.392 29.6276 220.226 29.7934C220.059 29.9592 219.927 30.1563 219.837 30.3732C219.747 30.5901 219.701 30.8226 219.701 31.0574V31.0621ZM214.619 32.8755C214.732 30.4811 215.281 28.3584 217.035 26.6106C218.79 24.8628 220.911 24.3146 223.309 24.1974C225.781 24.0569 233.19 24.0569 235.658 24.1974C238.051 24.3099 240.172 24.8581 241.931 26.6059C243.691 28.3537 244.231 30.4764 244.348 32.8708C244.489 35.3403 244.489 42.7391 244.348 45.2039C244.235 47.5983 243.686 49.721 241.931 51.4688C240.177 53.2166 238.056 53.7648 235.658 53.882C233.185 54.0225 225.777 54.0225 223.309 53.882C220.911 53.7695 218.786 53.2213 217.035 51.4688C215.285 49.7163 214.736 47.5983 214.619 45.2039C214.478 42.7344 214.478 35.3637 214.619 32.8755ZM217.81 47.8701C218.064 48.5125 218.447 49.0961 218.936 49.5845C219.425 50.0729 220.01 50.4559 220.653 50.7097C222.624 51.4922 227.302 51.3095 229.479 51.3095C231.656 51.3095 236.339 51.4828 238.304 50.7097C238.948 50.4559 239.532 50.0729 240.021 49.5845C240.51 49.0961 240.894 48.5125 241.148 47.8701C241.931 45.9021 241.748 41.2303 241.748 39.0561C241.748 36.8819 241.922 32.2055 241.148 30.2421C240.894 29.5997 240.51 29.0162 240.021 28.5277C239.532 28.0393 238.948 27.6563 238.304 27.4025C236.334 26.62 231.656 26.8027 229.479 26.8027C227.302 26.8027 222.619 26.6294 220.653 27.4025C220.01 27.6563 219.425 28.0393 218.936 28.5277C218.447 29.0162 218.064 29.5997 217.81 30.2421C217.026 32.2102 217.209 36.8819 217.209 39.0561C217.209 41.2303 217.031 45.888 217.81 47.8373V47.8701Z" fill="black"/>
<path opacity="0.2" d="M127.689 203.874V231.385C127.689 231.837 127.869 232.271 128.19 232.591C128.51 232.911 128.944 233.09 129.397 233.09H137.289V221.095H133.268L132.668 216.409H137.299V213.429C137.299 212.074 136.923 211.156 134.981 211.156H132.508V206.981C133.707 206.853 134.911 206.791 136.116 206.794C139.682 206.794 142.132 208.968 142.132 212.965V216.409H146.167V221.095H142.132V233.072H156.949C157.402 233.07 157.835 232.89 158.155 232.571C158.475 232.251 158.656 231.818 158.657 231.366V203.874C158.656 203.422 158.475 202.989 158.155 202.67C157.835 202.35 157.402 202.17 156.949 202.169H129.402C128.949 202.169 128.514 202.348 128.193 202.668C127.872 202.988 127.691 203.422 127.689 203.874Z" fill="black"/>
<path opacity="0.2" d="M50.4348 83.0136C50.455 82.1525 50.7015 81.3118 51.1494 80.5758C51.5974 79.8398 52.2312 79.2342 52.9873 78.8198C55.765 77.3063 67.6687 74.4433 67.6687 74.4433C67.6687 74.4433 79.5771 71.5802 82.7395 71.6646C83.6009 71.6904 84.4404 71.9415 85.174 72.393C85.9077 72.8444 86.5098 73.4803 86.9202 74.2371C88.4357 77.0486 89.9371 83.2572 89.9371 83.2572C89.9371 83.2572 91.4386 89.4847 91.3447 92.6616C91.3214 93.5157 91.0721 94.3484 90.6221 95.0752C90.1721 95.8019 89.5376 96.3967 88.7829 96.7992C86.0052 98.3127 74.1015 101.176 74.1015 101.176C74.1015 101.176 62.1931 104.039 59.0306 103.954C58.1743 103.94 57.3372 103.699 56.6045 103.256C55.8718 102.813 55.2697 102.184 54.8594 101.433C53.3439 98.622 51.8424 92.4133 51.8424 92.4133C51.8424 92.4133 50.355 86.1905 50.4348 83.0136ZM76.1566 92.5585L73.4305 81.2517L64.8394 89.2972L76.1519 92.5773L76.1566 92.5585Z" fill="black"/>
</g>
<defs>
<linearGradient id="paint0_linear_2_2" x1="253.957" y1="404" x2="253.957" y2="0.000215765" gradientUnits="userSpaceOnUse">
<stop stop-color="#808080" stop-opacity="0.25"/>
<stop offset="0.54" stop-color="#808080" stop-opacity="0.12"/>
<stop offset="1" stop-color="#808080" stop-opacity="0.1"/>
</linearGradient>
<clipPath id="clip0_2_2">
<rect width="498" height="404" fill="white" transform="matrix(-1 0 0 1 498 0)"/>
</clipPath>
</defs>
</svg>
