<svg width="604" height="421" viewBox="0 0 604 421" fill="none" xmlns="http://www.w3.org/2000/svg">
<g clip-path="url(#clip0_9_0)">
<path d="M120.343 421C186.807 421 240.686 416.9 240.686 411.843C240.686 406.786 186.807 402.687 120.343 402.687C53.8794 402.687 0 406.786 0 411.843C0 416.9 53.8794 421 120.343 421Z" fill="#E6E6E6"/>
<path d="M91.988 93.4125C112.931 84.4883 139.017 90.1426 164.492 94.0668C164.729 89.3145 167.602 83.5307 164.592 80.2153C160.935 76.1873 161.272 71.955 163.472 67.6983C169.099 56.8134 161.037 45.2312 152.897 35.6008C151.062 33.435 148.744 31.7334 146.129 30.634C143.515 29.5346 140.678 29.0686 137.85 29.2737L122.771 30.3528C119.102 30.6153 115.6 31.9943 112.734 34.3051C109.869 36.616 107.776 39.7485 106.736 43.2835C103.135 48.1893 101.208 53.0816 102.422 57.9483C97.0284 61.6406 96.1223 66.0975 98.5458 71.1219C100.601 74.2855 100.579 77.3649 98.4523 80.3591C95.6595 84.1765 93.5204 88.433 92.1228 92.9542L91.988 93.4125Z" fill="#2F2E41"/>
<path d="M589.687 363.948H162.837C159.041 363.948 155.401 362.437 152.717 359.748C150.033 357.059 148.525 353.412 148.525 349.609C303.258 331.593 455.083 331.593 604 349.609C604 353.412 602.492 357.059 599.808 359.748C597.124 362.437 593.483 363.948 589.687 363.948Z" fill="#2F2E41"/>
<path d="M604 350.453L148.525 349.609L201.313 260.625L201.565 260.204V64.0936C201.565 61.7132 202.033 59.3561 202.942 57.1569C203.851 54.9577 205.184 52.9595 206.864 51.2763C208.544 49.5932 210.539 48.2581 212.734 47.3472C214.929 46.4364 217.282 45.9677 219.658 45.9679H530.341C532.717 45.9677 535.07 46.4364 537.265 47.3472C539.46 48.2581 541.455 49.5932 543.135 51.2763C544.815 52.9595 546.148 54.9577 547.057 57.1569C547.966 59.3561 548.434 61.7132 548.434 64.0936V261.553L604 350.453Z" fill="#3F3D56"/>
<path d="M219.245 58.6196C217.683 58.6214 216.185 59.244 215.08 60.3509C213.975 61.4577 213.354 62.9584 213.352 64.5238V243.335C213.354 244.9 213.975 246.401 215.08 247.508C216.185 248.614 217.683 249.237 219.245 249.239H533.279C534.842 249.237 536.34 248.614 537.444 247.507C538.549 246.401 539.171 244.9 539.173 243.335V64.5238C539.171 62.9584 538.549 61.4578 537.445 60.3509C536.34 59.2441 534.842 58.6215 533.279 58.6196H219.245Z" fill="white"/>
<path d="M220.561 272.855C220.078 272.856 219.606 272.995 219.199 273.256C218.793 273.517 218.469 273.889 218.267 274.328L202.001 309.753C201.824 310.138 201.746 310.562 201.776 310.986C201.805 311.409 201.94 311.818 202.169 312.176C202.397 312.533 202.712 312.827 203.083 313.031C203.455 313.234 203.872 313.341 204.295 313.341H546.353C546.783 313.341 547.207 313.231 547.583 313.021C547.959 312.811 548.275 312.508 548.501 312.141C548.727 311.774 548.856 311.355 548.876 310.924C548.895 310.493 548.804 310.065 548.611 309.679L530.931 274.254C530.722 273.833 530.4 273.479 530.001 273.231C529.602 272.984 529.142 272.854 528.673 272.855H220.561Z" fill="#2F2E41"/>
<path d="M374.999 55.6676C377.092 55.6676 378.788 53.9683 378.788 51.872C378.788 49.7758 377.092 48.0765 374.999 48.0765C372.907 48.0765 371.211 49.7758 371.211 51.872C371.211 53.9683 372.907 55.6676 374.999 55.6676Z" fill="white"/>
<path d="M341.378 320.088C340.823 320.089 340.283 320.273 339.843 320.611C339.402 320.949 339.084 321.424 338.939 321.961L334.859 337.143C334.758 337.518 334.745 337.911 334.82 338.292C334.896 338.673 335.057 339.032 335.293 339.34C335.529 339.648 335.832 339.898 336.18 340.07C336.528 340.242 336.91 340.331 337.298 340.331H414.892C415.294 340.331 415.691 340.235 416.049 340.05C416.407 339.865 416.715 339.597 416.949 339.268C417.182 338.94 417.334 338.56 417.391 338.161C417.448 337.761 417.41 337.354 417.278 336.973L412.032 321.791C411.86 321.294 411.538 320.863 411.11 320.558C410.682 320.253 410.17 320.089 409.645 320.088H341.378Z" fill="#2F2E41"/>
<path d="M548.433 257.252V260.625H201.312L201.574 260.204V257.252H548.433Z" fill="#2F2E41"/>
<path d="M538.752 118.083C571.3 118.083 597.686 91.649 597.686 59.0414C597.686 26.4337 571.3 0 538.752 0C506.203 0 479.818 26.4337 479.818 59.0414C479.818 91.649 506.203 118.083 538.752 118.083Z" fill="#FFD452"/>
<path d="M563.167 84.7666H514.336C513.443 84.7657 512.587 84.4099 511.956 83.7774C511.324 83.1449 510.969 82.2873 510.969 81.3928V51.8721C510.969 50.9776 511.325 50.12 511.956 49.4875C512.587 48.855 513.443 48.4992 514.336 48.4983H563.167C564.06 48.4992 564.916 48.855 565.547 49.4875C566.179 50.12 566.534 50.9776 566.535 51.8721V81.3927C566.534 82.2873 566.179 83.1449 565.547 83.7774C564.916 84.4099 564.06 84.7657 563.167 84.7666ZM514.336 51.8721V81.3928H563.17L563.167 51.8721L514.336 51.8721Z" fill="white"/>
<path d="M553.906 51.8721H523.597V38.3769C523.597 28.6023 529.971 21.5079 538.752 21.5079C547.533 21.5079 553.906 28.6023 553.906 38.3769L553.906 51.8721ZM526.965 48.4983H550.538V38.3769C550.538 30.4312 545.692 24.8817 538.752 24.8817C531.812 24.8817 526.965 30.4313 526.965 38.3769L526.965 48.4983Z" fill="white"/>
<path d="M538.752 69.1627C540.612 69.1627 542.119 67.6522 542.119 65.789C542.119 63.9257 540.612 62.4152 538.752 62.4152C536.892 62.4152 535.384 63.9257 535.384 65.789C535.384 67.6522 536.892 69.1627 538.752 69.1627Z" fill="white"/>
<path d="M497.611 188.588H254.914C253.722 188.587 252.58 188.112 251.738 187.268C250.895 186.424 250.421 185.279 250.42 184.085V123.773C250.421 122.579 250.895 121.435 251.738 120.591C252.58 119.747 253.722 119.272 254.914 119.271H497.611C498.802 119.272 499.945 119.747 500.787 120.591C501.63 121.435 502.104 122.579 502.105 123.773V184.085C502.104 185.279 501.63 186.424 500.787 187.268C499.945 188.112 498.802 188.587 497.611 188.588ZM254.914 121.072C254.199 121.072 253.514 121.357 253.008 121.864C252.502 122.37 252.218 123.057 252.217 123.773V184.085C252.218 184.802 252.502 185.488 253.008 185.995C253.514 186.501 254.199 186.786 254.914 186.787H497.611C498.326 186.786 499.011 186.501 499.517 185.995C500.022 185.488 500.307 184.802 500.307 184.085V123.773C500.307 123.057 500.022 122.37 499.517 121.864C499.011 121.357 498.326 121.072 497.611 121.072L254.914 121.072Z" fill="#E6E6E6"/>
<path d="M292.624 169.956C302.735 169.956 310.932 161.744 310.932 151.615C310.932 141.486 302.735 133.274 292.624 133.274C282.513 133.274 274.316 141.486 274.316 151.615C274.316 161.744 282.513 169.956 292.624 169.956Z" fill="#E6E6E6"/>
<path d="M334.906 139.388C334.505 139.387 334.108 139.466 333.737 139.619C333.366 139.772 333.029 139.997 332.746 140.281C332.462 140.565 332.236 140.902 332.083 141.274C331.929 141.645 331.85 142.043 331.85 142.445C331.85 142.846 331.929 143.244 332.083 143.615C332.236 143.987 332.462 144.324 332.746 144.608C333.029 144.892 333.366 145.117 333.737 145.27C334.108 145.423 334.505 145.502 334.906 145.501H478.752C479.562 145.501 480.338 145.179 480.91 144.606C481.482 144.033 481.804 143.255 481.804 142.445C481.804 141.634 481.482 140.856 480.91 140.283C480.338 139.71 479.562 139.388 478.752 139.388H334.906Z" fill="#E6E6E6"/>
<path d="M334.906 157.729C334.097 157.729 333.321 158.051 332.749 158.624C332.176 159.197 331.855 159.975 331.855 160.786C331.855 161.596 332.176 162.374 332.749 162.947C333.321 163.52 334.097 163.842 334.906 163.842H396.804C397.613 163.842 398.389 163.52 398.961 162.947C399.533 162.374 399.855 161.596 399.855 160.786C399.855 159.975 399.533 159.197 398.961 158.624C398.389 158.051 397.613 157.729 396.804 157.729H334.906Z" fill="#E6E6E6"/>
<path d="M200.715 158.965L155.851 182.861L155.283 162.948C169.926 160.499 183.858 156.235 196.74 149.293L201.432 137.68C201.944 136.414 202.775 135.304 203.844 134.457C204.913 133.61 206.183 133.057 207.53 132.851C208.878 132.645 210.255 132.793 211.528 133.281C212.8 133.77 213.924 134.581 214.789 135.636C216.055 137.18 216.687 139.147 216.559 141.141C216.43 143.134 215.55 145.004 214.097 146.372L200.715 158.965Z" fill="#FFB8B8"/>
<path d="M91.0937 296.929C90.7664 295.726 90.6969 294.468 90.8898 293.236C91.0827 292.005 91.5336 290.829 92.2128 289.784L102.068 274.632C104.399 271.048 107.976 268.459 112.105 267.368C116.233 266.277 120.619 266.761 124.412 268.726C120.27 275.789 120.847 281.986 125.842 287.37C118.088 291.163 110.921 296.057 104.564 301.903C103.404 302.695 102.071 303.199 100.677 303.371C99.2828 303.543 97.8679 303.379 96.55 302.892C95.2321 302.405 94.0493 301.61 93.1002 300.573C92.1511 299.536 91.4632 298.286 91.0937 296.929Z" fill="#2F2E41"/>
<path d="M202.759 277.117C201.267 279.607 199.162 281.671 196.645 283.111C194.128 284.552 191.284 285.32 188.385 285.342L122.913 285.838L120.073 269.339L149.036 260.805L124.616 242.03L151.308 210.739L199.788 256.006C202.621 258.652 204.462 262.192 205.003 266.035C205.544 269.877 204.752 273.789 202.759 277.117Z" fill="#2F2E41"/>
<path d="M112.69 389.954H97.3569C83.5897 295.414 69.5761 200.609 110.987 165.224L159.826 173.189L153.579 214.721L126.32 246.013L112.69 389.954Z" fill="#2F2E41"/>
<path d="M126.169 411.37C124.969 411.698 123.713 411.768 122.484 411.575C121.254 411.382 120.08 410.93 119.038 410.25L102.389 408.008C98.8111 405.673 96.2269 402.09 95.1374 397.954C94.048 393.817 94.5309 389.423 96.4926 385.624C103.543 389.773 109.728 389.194 115.103 384.19C118.9 391.872 125.157 391.403 131.133 397.875C131.924 399.038 132.427 400.373 132.599 401.769C132.771 403.166 132.607 404.584 132.121 405.904C131.636 407.224 130.842 408.409 129.807 409.36C128.771 410.311 127.524 411 126.169 411.37Z" fill="#2F2E41"/>
<path d="M149.036 102.071L120.641 95.2442C125.357 85.5733 125.745 74.8125 123.48 63.3836L142.789 62.8147C143.394 77.0269 145.225 90.3046 149.036 102.071Z" fill="#FFB8B8"/>
<path d="M156.84 190.319C136.169 204.43 121.564 190.802 110.419 169.775C111.967 156.909 109.46 141.511 104.815 124.781C102.75 117.401 103.521 109.514 106.977 102.677C110.432 95.8393 116.321 90.5482 123.48 87.848L147.9 98.0889C168.636 115.021 172.717 133.363 164.937 152.707L156.84 190.319Z" fill="#FFD452"/>
<path d="M97.3569 116.295L74.6407 128.243L114.962 152.138L120.572 166.002C120.947 166.928 121.129 167.92 121.108 168.918C121.088 169.916 120.864 170.9 120.452 171.809C120.039 172.718 119.446 173.533 118.709 174.205C117.971 174.877 117.105 175.391 116.163 175.717C115.092 176.087 113.95 176.203 112.826 176.057C111.703 175.911 110.628 175.507 109.686 174.875C108.745 174.244 107.962 173.403 107.4 172.417C106.837 171.432 106.509 170.33 106.443 169.197L105.875 159.534L54.6278 142.592C52.9011 142.021 51.3267 141.064 50.0239 139.793C48.7211 138.523 47.724 136.972 47.1081 135.258C46.2104 132.759 46.1647 130.034 46.9782 127.506C47.7917 124.979 49.4184 122.794 51.6039 121.292L92.8137 92.9685L97.3569 116.295Z" fill="#FFB8B8"/>
<path d="M120.073 118.571C110.599 114.411 101.984 118.93 91.11 122.553L89.4063 92.3995C100.204 86.6342 110.498 85.0797 120.073 89.5549L120.073 118.571Z" fill="#FFD452"/>
<path d="M131.406 77.7509C141.419 77.7509 149.535 69.6194 149.535 59.5886C149.535 49.5579 141.419 41.4264 131.406 41.4264C121.394 41.4264 113.277 49.5579 113.277 59.5886C113.277 69.6194 121.394 77.7509 131.406 77.7509Z" fill="#FFB8B8"/>
<path d="M153.095 57.2971C135.145 59.0583 121.468 56.1174 112.726 47.7436V41H151.571L153.095 57.2971Z" fill="#2F2E41"/>
</g>
<defs>
<clipPath id="clip0_9_0">
<rect width="604" height="421" fill="white"/>
</clipPath>
</defs>
</svg>
