<svg width="604" height="328" viewBox="0 0 604 328" fill="none" xmlns="http://www.w3.org/2000/svg">
<g clip-path="url(#clip0_4_22)">
<path d="M89.7907 215.094C94.8932 210.984 100.757 207.925 107.045 206.093C124.642 201.052 142.845 205.931 160.449 210.65C169.953 213.198 179.78 215.832 189.472 216.917C205.003 218.656 219.478 216.229 231.334 209.9C244.658 202.787 254.255 190.545 257.007 177.155C257.354 175.461 257.586 173.745 257.7 172.019C256.387 172.83 255.069 173.628 253.747 174.414C239.841 182.684 220.296 190.415 206.155 180.284C200.727 176.396 197.205 169.899 196.492 162.459C195.728 154.487 198.29 146.539 203.344 141.197C204.167 140.328 205.051 139.516 205.987 138.769C216.23 130.581 232.401 130.139 243.744 138.232C253.349 145.085 259.04 157.468 258.857 170.027C267.07 164.87 275.013 159.293 282.654 153.319L283.317 154.169C275.457 160.315 267.279 166.041 258.818 171.325C258.723 173.357 258.471 175.38 258.062 177.373C255.246 191.073 245.443 203.588 231.841 210.852C219.792 217.284 205.1 219.753 189.352 217.99C179.58 216.896 169.713 214.25 160.17 211.693C141.904 206.796 124.651 202.171 107.341 207.13C89.9428 212.114 75.8889 227.404 72.3686 245.177C68.8468 262.95 76.0085 282.454 90.1889 293.71L89.5194 294.556C75.0306 283.055 67.7135 263.126 71.3112 244.967C73.6364 233.23 80.458 222.553 89.7907 215.094ZM257.764 170.71C258.172 158.258 252.62 145.89 243.118 139.111C231.164 130.582 213.671 131.852 204.126 141.939C199.283 147.058 196.83 154.69 197.565 162.356C198.248 169.485 201.608 175.7 206.782 179.407C220.45 189.199 239.567 181.592 253.197 173.486C254.726 172.577 256.248 171.652 257.764 170.71Z" fill="#3F3D56"/>
<path d="M150.057 306.959C232.931 306.959 300.114 303.819 300.114 299.946C300.114 296.072 232.931 292.932 150.057 292.932C67.1828 292.932 0 296.072 0 299.946C0 303.819 67.1828 306.959 150.057 306.959Z" fill="#3F3D56"/>
<path d="M144.4 328C173.859 328 197.741 324.86 197.741 320.986C197.741 317.113 173.859 313.973 144.4 313.973C114.94 313.973 91.058 317.113 91.058 320.986C91.058 324.86 114.94 328 144.4 328Z" fill="#3F3D56"/>
<path d="M99.9483 152.93V157.246C99.9483 157.246 95.0865 179.813 102.642 178.826C115.035 177.208 105.875 158.864 105.875 158.864V155.088L99.9483 152.93Z" fill="#FFB8B8"/>
<path d="M160.294 274.319L165.144 287.807L176.997 283.491L171.609 271.082L160.294 274.319Z" fill="#FFB8B8"/>
<path d="M130.66 287.807L127.427 299.676L139.82 303.452L140.359 291.044L130.66 287.807Z" fill="#FFB8B8"/>
<path d="M119.884 151.851L118.806 157.785C118.806 157.785 118.268 162.101 118.806 164.799C119.345 167.497 158.139 279.175 158.139 279.175L174.842 272.701L153.29 202.025L150.596 147.535L119.884 151.851Z" fill="#2F2E41"/>
<path d="M140.897 150.772L138.742 230.619C138.742 230.619 133.893 236.014 134.971 239.791C136.048 243.567 132.277 274.859 132.277 274.859L129.044 290.504L143.053 294.82C143.053 294.82 145.747 280.793 147.902 279.175C150.057 277.556 162.45 229 162.45 225.763C162.45 222.526 171.609 150.772 171.609 150.772L148.979 141.6L140.897 150.772Z" fill="#2F2E41"/>
<path d="M166.221 279.175C166.221 279.175 160.294 272.701 157.062 279.175C154.64 283.828 151.941 288.332 148.979 292.662C148.979 292.662 131.738 302.913 148.979 305.611C148.979 305.611 158.678 306.15 163.527 302.913C168.376 299.676 181.308 294.82 181.308 293.741C181.308 292.662 178.075 276.801 174.842 278.527C171.609 280.254 166.221 279.175 166.221 279.175Z" fill="#2F2E41"/>
<path d="M136.587 296.978C136.587 296.978 131.738 289.965 127.427 294.82C123.117 299.676 117.729 313.703 117.729 313.703C117.729 313.703 108.03 328.27 123.117 327.73C138.203 327.191 139.281 321.796 139.281 321.796C139.281 321.796 141.436 307.769 141.436 307.229C141.436 306.69 140.359 301.144 140.359 301.144L136.587 296.978Z" fill="#2F2E41"/>
<path d="M133.085 39.903C141.417 39.903 148.171 33.1397 148.171 24.7968C148.171 16.4539 141.417 9.69061 133.085 9.69061C124.753 9.69061 117.998 16.4539 117.998 24.7968C117.998 33.1397 124.753 39.903 133.085 39.903Z" fill="#FFB8B8"/>
<path d="M125.272 34.2382L127.427 51.5024L133.893 67.6877L147.902 50.9629V42.8703C147.902 42.8703 143.591 36.3962 144.669 31.0012L125.272 34.2382Z" fill="#FFB8B8"/>
<path d="M132.815 55.279L125.272 52.042L117.19 147.535L118.806 153.469C118.806 153.469 123.117 156.167 136.587 154.009C150.057 151.851 172.148 153.469 172.148 153.469L173.765 104.374L147.363 46.6469L132.815 55.279Z" fill="#D0CDE1"/>
<path d="M119.345 149.693C119.345 149.693 129.583 60.6741 129.044 59.0556C128.505 57.437 119.345 53.0544 119.345 53.0544C119.345 53.0544 103.72 63.3716 104.259 67.1482C104.798 70.9247 114.496 150.772 114.496 150.772L119.345 149.693Z" fill="#575A89"/>
<path d="M160.294 143.219C160.294 143.219 144.13 80.0964 143.591 66.0692C143.053 52.042 143.053 50.4235 143.053 50.4235C143.053 50.4235 167.838 41.7914 176.459 50.4235L178.075 95.7421C178.075 95.7421 180.769 115.164 179.691 121.099C178.949 124.963 177.867 128.755 176.459 132.429C176.459 132.429 182.385 138.363 176.997 139.982C171.609 141.6 167.838 138.903 165.682 141.6C163.527 144.298 160.294 143.219 160.294 143.219Z" fill="#575A89"/>
<path d="M108.03 63.9111C108.03 63.9111 101.565 63.9111 102.103 71.4642C102.642 79.0173 102.103 114.085 102.103 114.085C102.103 114.085 97.2543 143.758 98.8707 145.916C100.487 148.074 98.3319 155.088 98.3319 155.088L108.03 157.246C108.03 157.246 109.108 149.693 111.263 149.153C113.418 148.614 116.651 132.968 116.651 132.968L108.03 63.9111Z" fill="#575A89"/>
<path d="M180.769 130.271L178.295 134.775C178.295 134.775 161.324 148.307 169.7 153.316C178.075 158.325 186.157 139.982 186.157 139.982L188.851 135.126L180.769 130.271Z" fill="#FFB8B8"/>
<path d="M168.915 49.3444L176.459 50.4234C176.459 50.4234 185.079 56.358 185.618 59.5951C186.157 62.8321 203.399 92.505 203.399 92.505C204.415 94.706 204.966 97.0941 205.015 99.5186C205.015 103.295 199.088 131.889 195.856 132.429C192.623 132.968 190.467 138.363 190.467 138.363L179.153 131.35C179.188 129.718 179.368 128.093 179.691 126.494C180.23 123.796 182.385 118.401 182.385 118.401L185.618 107.072C185.116 106.695 184.709 106.206 184.428 105.644C184.148 105.082 184.002 104.463 184.002 103.835C184.002 101.677 174.842 90.347 174.842 90.347L168.915 49.3444Z" fill="#575A89"/>
<path d="M131.136 60.7871C131.136 60.7871 117.19 56.8975 118.268 54.2C119.345 51.5024 120.423 50.9629 120.423 50.9629C120.423 50.9629 122.039 46.6469 123.656 46.6469C125.272 46.6469 126.656 45.3217 126.656 45.3217L132.815 55.279L131.136 60.7871Z" fill="#D0CDE1"/>
<path d="M146.294 39.9031C146.294 39.9031 151.673 38.5543 153.829 40.1728C155.984 41.7914 157.6 41.7914 158.139 42.8704C158.678 43.9494 165.682 45.0284 163.527 46.6469C161.372 48.2655 132.815 55.279 132.815 55.279L146.285 45.5679L146.294 39.9031Z" fill="#D0CDE1"/>
<path d="M147.975 8.72334C145.568 4.80928 141.8 1.92504 137.397 0.625746L134.162 3.21654L135.42 0.194682C134.362 0.0331547 133.292 -0.028783 132.223 0.00968691L129.313 3.75604L130.518 0.138011C127.992 0.452219 125.56 1.2869 123.373 2.58942C121.186 3.89194 119.292 5.63405 117.811 7.70589C114.108 13.0533 114.355 20.4866 117.998 25.8758C118.998 22.7988 119.339 19.9147 120.339 16.8376C121.125 16.9449 121.922 16.9488 122.708 16.8492L123.925 14.0067L124.265 16.7289C128.036 16.4 133.629 15.6778 137.204 15.016L136.856 12.9277L138.936 14.6631C140.031 14.4106 140.682 14.1817 140.628 14.0067C143.287 18.2985 145.921 21.0398 148.58 25.3317C149.589 19.2779 151.371 14.2458 147.975 8.72334Z" fill="#2F2E41"/>
<path d="M147.094 24.7968C147.689 24.7968 148.171 23.8307 148.171 22.6388C148.171 21.447 147.689 20.4808 147.094 20.4808C146.499 20.4808 146.016 21.447 146.016 22.6388C146.016 23.8307 146.499 24.7968 147.094 24.7968Z" fill="#FFB8B8"/>
<path d="M56.1542 299.801L55.5759 299.584C55.4488 299.536 42.8017 294.684 36.8772 283.682C30.9524 272.68 33.8535 259.434 33.8835 259.302L34.02 258.698L34.598 258.916C34.7251 258.963 47.372 263.815 53.2968 274.817C59.2215 285.819 56.3204 299.065 56.2905 299.197L56.1542 299.801ZM37.8259 283.17C42.8348 292.472 52.829 297.24 55.3612 298.329C55.8427 295.611 57.3525 284.622 52.3481 275.329C47.3441 266.037 37.346 261.262 34.8127 260.171C34.331 262.89 32.8217 273.878 37.8259 283.17Z" fill="#3F3D56"/>
<path d="M41.4049 279.823C52.0519 286.237 56.1525 298.977 56.1525 298.977C56.1525 298.977 42.9907 301.318 32.3436 294.904C21.6965 288.49 17.596 275.75 17.596 275.75C17.596 275.75 30.7578 273.409 41.4049 279.823Z" fill="#FFD452"/>
<path d="M273.174 160.126H519.507C566.171 160.126 604 133.494 604 86.7687V86.7686C604 40.0433 566.171 20.5682 519.507 20.5682H442.161C348.832 20.5682 273.174 66.6752 273.174 160.126V160.126Z" fill="#3F3D56"/>
<path d="M505.756 148.808H300.744V148.268C300.744 111.568 315.024 81.3318 342.041 60.8282C366.99 41.8943 401.401 31.8863 441.553 31.8863H505.756C526.233 31.8863 543.489 36.3915 555.658 44.9146C569.441 54.5685 576.43 68.8549 576.43 87.3765C576.43 105.992 569.258 121.694 555.69 132.785C543.049 143.118 525.316 148.808 505.756 148.808ZM301.823 147.729H505.756C547.384 147.729 575.352 123.475 575.352 87.3768C575.352 52.7975 549.985 32.9653 505.756 32.9653H441.553C374.147 32.9653 302.13 63.1308 301.823 147.729Z" fill="#FFD452"/>
<path d="M406.797 67.9575H377.702V74.9711H406.797V67.9575Z" fill="#FFD452"/>
<path d="M507.554 67.9575H497.317V74.9711H507.554V67.9575Z" fill="#FFD452"/>
<path d="M528.029 67.9575H517.791V74.9711H528.029V67.9575Z" fill="#FFD452"/>
<path d="M486.541 67.9575H417.035V74.9711H486.541V67.9575Z" fill="#FFD452"/>
<path d="M370.159 113.276H341.063V120.29H370.159V113.276Z" fill="#FFD452"/>
<path d="M470.915 113.276H460.678V120.29H470.915V113.276Z" fill="#FFD452"/>
<path d="M491.39 113.276H481.153V120.29H491.39V113.276Z" fill="#FFD452"/>
<path d="M449.902 113.276H380.396V120.29H449.902V113.276Z" fill="#FFD452"/>
<path d="M490.312 83.6031H461.217V90.6168H490.312V83.6031Z" fill="#FFD452"/>
<path d="M529.645 83.6031H500.55V90.6168H529.645V83.6031Z" fill="#FFD452"/>
<path d="M550.12 83.6031H539.882V90.6168H550.12V83.6031Z" fill="#FFD452"/>
<path d="M351.301 83.6031H341.063V90.6168H351.301V83.6031Z" fill="#FFD452"/>
<path d="M371.775 83.6031H361.538V90.6168H371.775V83.6031Z" fill="#FFD452"/>
<path d="M451.518 83.6031H382.013V90.6168H451.518V83.6031Z" fill="#FFD452"/>
<path d="M400.871 105.723H429.966V98.7093H400.871V105.723Z" fill="#FFD452"/>
<path d="M361.538 105.723H390.633V98.7093H361.538V105.723Z" fill="#FFD452"/>
<path d="M341.063 105.723H351.301V98.7093H341.063V105.723Z" fill="#FFD452"/>
<path d="M539.882 105.723H550.12V98.7093H539.882V105.723Z" fill="#FFD452"/>
<path d="M519.408 105.723H529.645V98.7093H519.408V105.723Z" fill="#FFD452"/>
<path d="M439.665 105.723L509.17 105.723V98.7093L439.665 98.7093V105.723Z" fill="#FFD452"/>
<path d="M92.1356 289.695H81.8983V297.788H92.1356V289.695Z" fill="#FFD452"/>
<path d="M176.728 313.433H166.491V321.526H176.728V313.433Z" fill="#FFD452"/>
</g>
<defs>
<clipPath id="clip0_4_22">
<rect width="604" height="328" fill="white"/>
</clipPath>
</defs>
</svg>
