<svg width="604" height="369" viewBox="0 0 604 369" fill="none" xmlns="http://www.w3.org/2000/svg">
<g clip-path="url(#clip0_41_406)">
<path d="M469.619 262.016C470.383 261.441 471.011 260.706 471.46 259.863C471.909 259.019 472.168 258.088 472.217 257.133C472.267 256.179 472.107 255.226 471.748 254.34C471.389 253.454 470.84 252.658 470.14 252.008L479.512 230.754L467.605 232.771L460.531 252.644C459.515 253.892 458.993 255.469 459.062 257.076C459.132 258.683 459.79 260.209 460.91 261.364C462.03 262.52 463.535 263.224 465.14 263.344C466.746 263.464 468.339 262.992 469.619 262.016Z" fill="#A0616A"/>
<path d="M487.557 167.846L484.145 167.164C484.145 167.164 479.369 169.21 480.051 175.347C480.734 181.484 470.499 214.216 470.499 214.216L461.288 241.492L474.252 244.22L482.78 212.852L487.557 167.846Z" fill="#CCCCCC"/>
<path d="M503.031 272.158H428.893C427.428 272.156 426.023 271.573 424.986 270.538C423.95 269.502 423.367 268.098 423.365 266.633V259.484C423.367 258.019 423.95 256.615 424.986 255.579C426.023 254.543 427.428 253.961 428.893 253.959H503.031C504.496 253.961 505.901 254.543 506.938 255.579C507.974 256.615 508.557 258.019 508.559 259.484V266.633C508.557 268.098 507.974 269.502 506.938 270.538C505.901 271.573 504.496 272.156 503.031 272.158Z" fill="#F9A826"/>
<path d="M498.641 350.649L491.161 353.408L476.952 325.889L487.991 321.816L498.641 350.649Z" fill="#A0616A"/>
<path d="M485.029 353.244L499.454 347.922L502.807 356.999L479.3 365.671C478.859 364.479 478.658 363.212 478.708 361.943C478.758 360.673 479.057 359.426 479.589 358.272C480.121 357.117 480.875 356.079 481.809 355.217C482.742 354.354 483.837 353.684 485.029 353.244Z" fill="#2F2E41"/>
<path d="M512.936 362.094L504.971 361.733L502.575 330.857L514.33 331.391L512.936 362.094Z" fill="#A0616A"/>
<path d="M499.163 359.324H514.539V369H489.481C489.481 367.729 489.732 366.471 490.218 365.297C490.705 364.123 491.418 363.057 492.317 362.158C493.216 361.26 494.283 360.547 495.458 360.061C496.633 359.574 497.891 359.324 499.163 359.324Z" fill="#2F2E41"/>
<path d="M477.322 236.037C471.133 243.106 467.495 252.045 466.991 261.424L464.358 310.366L487.556 351.28L500.52 344.461L484.827 313.775L494.38 284.453L520.308 263.996L518.261 234.673L477.322 236.037Z" fill="#2F2E41"/>
<path d="M513.484 261.268L520.307 263.996L514.849 358.099L499.156 356.054L494.379 284.453L513.484 261.268Z" fill="#2F2E41"/>
<path d="M498.965 252.029C499.133 251.088 499.506 250.196 500.057 249.415C500.607 248.634 501.323 247.983 502.152 247.508C502.982 247.033 503.906 246.746 504.858 246.667C505.811 246.587 506.77 246.717 507.666 247.048L522.416 229.1L525.987 240.629L511.434 255.906C510.778 257.375 509.605 258.552 508.139 259.215C506.672 259.878 505.013 259.98 503.476 259.502C501.939 259.024 500.631 258 499.8 256.622C498.968 255.245 498.671 253.61 498.965 252.029Z" fill="#A0616A"/>
<path d="M504.409 156.601C513.231 156.601 520.382 149.454 520.382 140.638C520.382 131.821 513.231 124.674 504.409 124.674C495.588 124.674 488.436 131.821 488.436 140.638C488.436 149.454 495.588 156.601 504.409 156.601Z" fill="#A0616A"/>
<path d="M528.154 170.915C528.154 170.915 509.732 153.526 484.486 166.823C484.486 166.823 478.004 232.628 473.91 239.447C473.91 239.447 509.391 234.673 518.943 237.401C518.943 237.401 518.943 208.761 525.084 197.85C531.225 186.94 528.154 170.915 528.154 170.915Z" fill="#CCCCCC"/>
<path d="M520.99 172.619L528.476 171.237C532.214 173.409 535.106 176.78 536.683 180.802C539.412 187.622 546.918 221.035 546.918 221.035L517.578 250.357L511.438 241.493L529.86 216.944L520.308 196.486L520.99 172.619Z" fill="#CCCCCC"/>
<path d="M518.071 149.179C518.14 148.978 518.162 148.765 518.135 148.555C518.108 148.345 518.034 148.144 517.917 147.967C517.801 147.79 517.645 147.642 517.463 147.535C517.28 147.427 517.075 147.363 516.864 147.347C516.432 147.37 516.008 147.481 515.62 147.673C515.231 147.864 514.885 148.132 514.604 148.461C514.025 149.127 513.353 149.705 512.606 150.175C511.834 150.564 510.786 150.509 510.345 149.767C509.932 149.07 510.215 148.137 510.465 147.327C511.103 145.268 511.459 143.132 511.525 140.977C511.597 138.572 511.258 136.062 509.926 134.187C508.206 131.766 505.132 130.847 502.222 130.913C499.313 130.98 496.45 131.878 493.568 132.445C492.573 132.641 491.404 132.741 490.738 131.97C490.031 131.151 490.291 129.825 490.592 128.718C491.373 125.847 492.201 122.879 494.016 120.56C495.978 118.15 498.78 116.573 501.859 116.147C504.815 115.781 507.816 116.121 510.614 117.14C515.174 118.576 519.186 121.37 522.114 125.146C525.132 129.163 526.437 134.21 525.741 139.185C525.062 143.518 522.765 147.433 519.312 150.14" fill="#2F2E41"/>
<path d="M352.479 274.279H5.85298C4.30121 274.277 2.8135 273.66 1.71623 272.563C0.618966 271.467 0.00175454 269.98 5.72205e-06 268.429V5.84954C0.00180779 4.2987 0.619037 2.81189 1.71629 1.71528C2.81355 0.618668 4.30123 0.00180101 5.85298 0H352.479C354.031 0.00174779 355.519 0.618607 356.616 1.71523C357.713 2.81185 358.331 4.29868 358.332 5.84954V268.429C358.331 269.98 357.713 271.467 356.616 272.563C355.519 273.66 354.031 274.277 352.479 274.279ZM5.85298 1.2999C4.64605 1.30125 3.48894 1.78102 2.6355 2.63395C1.78207 3.48688 1.30202 4.64332 1.30067 5.84954V268.429C1.30207 269.635 1.78213 270.792 2.63555 271.645C3.48897 272.497 4.64607 272.977 5.85298 272.979H352.479C353.686 272.977 354.843 272.497 355.697 271.645C356.55 270.792 357.03 269.635 357.032 268.429V5.84954C357.03 4.64333 356.55 3.48693 355.697 2.63401C354.843 1.78109 353.686 1.30131 352.479 1.2999H5.85298Z" fill="#E6E6E6"/>
<path d="M318.662 62.3949H39.6702C38.1184 62.3931 36.6308 61.7762 35.5335 60.6796C34.4362 59.583 33.819 58.0962 33.8172 56.5453V36.3969C33.819 34.8461 34.4362 33.3593 35.5335 32.2626C36.6308 31.166 38.1184 30.5492 39.6702 30.5474H318.662C320.214 30.5491 321.702 31.166 322.799 32.2626C323.896 33.3592 324.513 34.846 324.515 36.3969V56.5453C324.513 58.0962 323.896 59.583 322.799 60.6797C321.702 61.7763 320.214 62.3931 318.662 62.3949ZM39.6702 31.8473C38.4633 31.8486 37.3061 32.3284 36.4527 33.1813C35.5993 34.0342 35.1192 35.1907 35.1179 36.3969V56.5453C35.1192 57.7516 35.5993 58.908 36.4527 59.7609C37.3061 60.6139 38.4632 61.0936 39.6702 61.095H318.662C319.869 61.0936 321.026 60.6138 321.879 59.7609C322.733 58.9079 323.213 57.7515 323.214 56.5453V36.3969C323.213 35.1907 322.733 34.0343 321.879 33.1814C321.026 32.3285 319.869 31.8487 318.662 31.8473H39.6702Z" fill="#3F3D56"/>
<path d="M150.226 116.341H39.6702C38.1184 116.339 36.6308 115.722 35.5335 114.625C34.4362 113.529 33.819 112.042 33.8172 110.491V90.3427C33.819 88.7919 34.4362 87.3051 35.5335 86.2084C36.6308 85.1118 38.1184 84.495 39.6702 84.4932H150.226C151.778 84.495 153.266 85.1118 154.363 86.2084C155.46 87.3051 156.078 88.7919 156.079 90.3427V110.491C156.078 112.042 155.46 113.529 154.363 114.625C153.266 115.722 151.778 116.339 150.226 116.341ZM39.6702 85.7931C38.4633 85.7944 37.3061 86.2742 36.4527 87.1271C35.5993 87.98 35.1192 89.1365 35.1179 90.3427V110.491C35.1192 111.697 35.5993 112.854 36.4527 113.707C37.3061 114.56 38.4632 115.039 39.6702 115.041H150.226C151.433 115.039 152.59 114.56 153.444 113.707C154.297 112.854 154.777 111.697 154.779 110.491V90.3427C154.777 89.1365 154.297 87.98 153.444 87.1271C152.59 86.2742 151.433 85.7944 150.226 85.7931H39.6702Z" fill="#3F3D56"/>
<path d="M318.662 116.341H208.106C206.554 116.339 205.066 115.722 203.969 114.625C202.872 113.529 202.255 112.042 202.253 110.491V90.3427C202.255 88.7919 202.872 87.3051 203.969 86.2084C205.066 85.1118 206.554 84.495 208.106 84.4932H318.662C320.214 84.4949 321.702 85.1118 322.799 86.2084C323.896 87.305 324.513 88.7918 324.515 90.3427V110.491C324.513 112.042 323.896 113.529 322.799 114.625C321.702 115.722 320.214 116.339 318.662 116.341ZM208.106 85.7931C206.899 85.7944 205.742 86.2742 204.888 87.1271C204.035 87.98 203.555 89.1365 203.554 90.3427V110.491C203.555 111.697 204.035 112.854 204.888 113.707C205.742 114.56 206.899 115.039 208.106 115.041H318.662C319.869 115.039 321.026 114.56 321.879 113.707C322.733 112.854 323.213 111.697 323.214 110.491V90.3427C323.213 89.1365 322.733 87.9801 321.879 87.1272C321.026 86.2743 319.869 85.7945 318.662 85.7931H208.106Z" fill="#3F3D56"/>
<path d="M318.987 243.731H244.85C243.384 243.729 241.979 243.147 240.943 242.111C239.906 241.075 239.323 239.671 239.322 238.206V231.057C239.323 229.592 239.906 228.188 240.943 227.152C241.979 226.116 243.384 225.534 244.85 225.532H318.987C320.453 225.534 321.858 226.117 322.894 227.152C323.93 228.188 324.513 229.592 324.515 231.057V238.206C324.513 239.671 323.93 241.075 322.894 242.111C321.858 243.146 320.453 243.729 318.987 243.731Z" fill="#E6E6E6"/>
<path d="M52.0265 150.138C50.9975 150.138 49.9916 149.833 49.136 149.262C48.2805 148.691 47.6136 147.879 47.2199 146.929C46.8261 145.979 46.723 144.933 46.9238 143.924C47.1245 142.916 47.62 141.989 48.3476 141.262C49.0752 140.535 50.0023 140.04 51.0115 139.839C52.0207 139.639 53.0668 139.742 54.0174 140.135C54.9681 140.529 55.7806 141.195 56.3523 142.05C56.924 142.905 57.2291 143.91 57.2291 144.939C57.2275 146.317 56.6789 147.639 55.7035 148.614C54.7282 149.589 53.4058 150.137 52.0265 150.138ZM52.0265 141.039C51.2547 141.039 50.5003 141.268 49.8586 141.696C49.217 142.125 48.7168 142.734 48.4215 143.447C48.1262 144.159 48.0489 144.943 48.1995 145.7C48.35 146.456 48.7216 147.151 49.2673 147.696C49.813 148.242 50.5083 148.613 51.2652 148.764C52.0221 148.914 52.8067 148.837 53.5197 148.542C54.2327 148.247 54.8421 147.747 55.2708 147.105C55.6996 146.464 55.9284 145.71 55.9284 144.939C55.9273 143.905 55.5159 142.914 54.7843 142.183C54.0528 141.452 53.061 141.04 52.0265 141.039Z" fill="#E6E6E6"/>
<path d="M52.0265 167.037C50.9975 167.037 49.9916 166.732 49.136 166.161C48.2805 165.589 47.6136 164.777 47.2199 163.827C46.8261 162.877 46.723 161.832 46.9238 160.823C47.1245 159.814 47.62 158.888 48.3476 158.161C49.0752 157.433 50.0023 156.938 51.0115 156.738C52.0207 156.537 53.0668 156.64 54.0174 157.034C54.9681 157.427 55.7806 158.093 56.3523 158.949C56.924 159.804 57.2291 160.809 57.2291 161.837C57.2275 163.216 56.6789 164.537 55.7035 165.512C54.7282 166.487 53.4058 167.035 52.0265 167.037ZM52.0265 157.938C51.2547 157.938 50.5003 158.166 49.8586 158.595C49.217 159.023 48.7168 159.632 48.4215 160.345C48.1262 161.058 48.0489 161.842 48.1995 162.598C48.35 163.355 48.7216 164.049 49.2673 164.595C49.813 165.14 50.5083 165.512 51.2652 165.662C52.0221 165.813 52.8067 165.735 53.5197 165.44C54.2327 165.145 54.8421 164.645 55.2708 164.004C55.6996 163.363 55.9284 162.609 55.9284 161.837C55.9273 160.803 55.5159 159.812 54.7843 159.081C54.0528 158.35 53.061 157.939 52.0265 157.938Z" fill="#E6E6E6"/>
<path d="M52.0265 183.936C50.9975 183.936 49.9916 183.631 49.136 183.06C48.2805 182.488 47.6136 181.676 47.2199 180.726C46.8261 179.776 46.723 178.73 46.9238 177.722C47.1245 176.713 47.62 175.787 48.3476 175.06C49.0752 174.332 50.0023 173.837 51.0115 173.637C52.0207 173.436 53.0668 173.539 54.0174 173.932C54.9681 174.326 55.7806 174.992 56.3523 175.847C56.924 176.703 57.2291 177.708 57.2291 178.736C57.2275 180.115 56.6789 181.436 55.7035 182.411C54.7282 183.386 53.4058 183.934 52.0265 183.936ZM52.0265 174.837C51.2547 174.837 50.5003 175.065 49.8586 175.494C49.217 175.922 48.7168 176.531 48.4215 177.244C48.1262 177.956 48.0489 178.741 48.1995 179.497C48.35 180.253 48.7216 180.948 49.2673 181.494C49.813 182.039 50.5083 182.411 51.2652 182.561C52.0221 182.711 52.8067 182.634 53.5197 182.339C54.2327 182.044 54.8421 181.544 55.2708 180.903C55.6996 180.261 55.9284 179.508 55.9284 178.736C55.9273 177.702 55.5159 176.711 54.7843 175.98C54.0528 175.249 53.061 174.838 52.0265 174.837Z" fill="#3F3D56"/>
<path d="M77.3894 140.714C76.2683 140.714 75.1931 141.159 74.4003 141.951C73.6076 142.744 73.1622 143.818 73.1622 144.939C73.1622 146.059 73.6076 147.134 74.4003 147.926C75.1931 148.718 76.2683 149.163 77.3894 149.163H137.87C138.991 149.163 140.066 148.718 140.859 147.926C141.652 147.134 142.097 146.059 142.097 144.939C142.097 143.818 141.652 142.744 140.859 141.951C140.066 141.159 138.991 140.714 137.87 140.714H77.3894Z" fill="#E6E6E6"/>
<path d="M77.3894 157.613C76.2683 157.613 75.1931 158.058 74.4003 158.85C73.6076 159.642 73.1622 160.717 73.1622 161.837C73.1622 162.958 73.6076 164.032 74.4003 164.825C75.1931 165.617 76.2683 166.062 77.3894 166.062H137.87C138.991 166.062 140.066 165.617 140.859 164.825C141.652 164.032 142.097 162.958 142.097 161.837C142.097 160.717 141.652 159.642 140.859 158.85C140.066 158.058 138.991 157.613 137.87 157.613H77.3894Z" fill="#E6E6E6"/>
<path d="M77.3894 174.511C76.2683 174.511 75.1931 174.956 74.4003 175.749C73.6076 176.541 73.1622 177.615 73.1622 178.736C73.1622 179.856 73.6076 180.931 74.4003 181.723C75.1931 182.515 76.2683 182.961 77.3894 182.961H137.87C138.991 182.961 140.066 182.515 140.859 181.723C141.652 180.931 142.097 179.856 142.097 178.736C142.097 177.615 141.652 176.541 140.859 175.749C140.066 174.956 138.991 174.511 137.87 174.511H77.3894Z" fill="#E6E6E6"/>
<path d="M220.787 150.138C219.758 150.138 218.752 149.833 217.897 149.262C217.041 148.691 216.374 147.879 215.981 146.929C215.587 145.979 215.484 144.933 215.685 143.924C215.885 142.916 216.381 141.989 217.108 141.262C217.836 140.535 218.763 140.04 219.772 139.839C220.782 139.639 221.828 139.742 222.778 140.135C223.729 140.529 224.541 141.195 225.113 142.05C225.685 142.905 225.99 143.91 225.99 144.939C225.988 146.317 225.44 147.639 224.464 148.614C223.489 149.589 222.167 150.137 220.787 150.138ZM220.787 141.039C220.016 141.039 219.261 141.268 218.619 141.696C217.978 142.125 217.478 142.734 217.182 143.447C216.887 144.159 216.81 144.943 216.96 145.7C217.111 146.456 217.482 147.151 218.028 147.696C218.574 148.242 219.269 148.613 220.026 148.764C220.783 148.914 221.568 148.837 222.281 148.542C222.994 148.247 223.603 147.747 224.032 147.105C224.46 146.464 224.689 145.71 224.689 144.939C224.688 143.905 224.277 142.914 223.545 142.183C222.814 141.452 221.822 141.04 220.787 141.039Z" fill="#E6E6E6"/>
<path d="M220.787 167.037C219.758 167.037 218.752 166.732 217.897 166.161C217.041 165.589 216.374 164.777 215.981 163.827C215.587 162.877 215.484 161.832 215.685 160.823C215.885 159.814 216.381 158.888 217.108 158.161C217.836 157.433 218.763 156.938 219.772 156.738C220.782 156.537 221.828 156.64 222.778 157.034C223.729 157.427 224.541 158.093 225.113 158.949C225.685 159.804 225.99 160.809 225.99 161.837C225.988 163.216 225.44 164.537 224.464 165.512C223.489 166.487 222.167 167.035 220.787 167.037ZM220.787 157.938C220.016 157.938 219.261 158.166 218.619 158.595C217.978 159.023 217.478 159.632 217.182 160.345C216.887 161.058 216.81 161.842 216.96 162.598C217.111 163.355 217.482 164.049 218.028 164.595C218.574 165.14 219.269 165.512 220.026 165.662C220.783 165.813 221.568 165.735 222.281 165.44C222.994 165.145 223.603 164.645 224.032 164.004C224.46 163.363 224.689 162.609 224.689 161.837C224.688 160.803 224.277 159.812 223.545 159.081C222.814 158.35 221.822 157.939 220.787 157.938Z" fill="#3F3D56"/>
<path d="M220.787 183.936C219.758 183.936 218.752 183.631 217.897 183.06C217.041 182.488 216.374 181.676 215.981 180.726C215.587 179.776 215.484 178.73 215.685 177.722C215.885 176.713 216.381 175.787 217.108 175.06C217.836 174.332 218.763 173.837 219.772 173.637C220.782 173.436 221.828 173.539 222.778 173.932C223.729 174.326 224.541 174.992 225.113 175.847C225.685 176.703 225.99 177.708 225.99 178.736C225.988 180.115 225.44 181.436 224.464 182.411C223.489 183.386 222.167 183.934 220.787 183.936ZM220.787 174.837C220.016 174.837 219.261 175.065 218.619 175.494C217.978 175.922 217.478 176.531 217.182 177.244C216.887 177.956 216.81 178.741 216.96 179.497C217.111 180.253 217.482 180.948 218.028 181.494C218.574 182.039 219.269 182.411 220.026 182.561C220.783 182.711 221.568 182.634 222.281 182.339C222.994 182.044 223.603 181.544 224.032 180.903C224.46 180.261 224.689 179.508 224.689 178.736C224.688 177.702 224.277 176.711 223.545 175.98C222.814 175.249 221.822 174.838 220.787 174.837Z" fill="#E6E6E6"/>
<path d="M220.787 200.834C219.758 200.834 218.752 200.529 217.897 199.958C217.041 199.387 216.374 198.575 215.981 197.624C215.587 196.674 215.484 195.629 215.685 194.62C215.885 193.612 216.381 192.685 217.108 191.958C217.836 191.231 218.763 190.736 219.772 190.535C220.782 190.334 221.828 190.437 222.778 190.831C223.729 191.224 224.541 191.891 225.113 192.746C225.685 193.601 225.99 194.606 225.99 195.635C225.988 197.013 225.44 198.335 224.464 199.31C223.489 200.284 222.167 200.833 220.787 200.834ZM220.787 191.735C220.016 191.735 219.261 191.964 218.619 192.392C217.978 192.821 217.478 193.43 217.182 194.142C216.887 194.855 216.81 195.639 216.96 196.395C217.111 197.152 217.482 197.847 218.028 198.392C218.574 198.938 219.269 199.309 220.026 199.459C220.783 199.61 221.568 199.533 222.281 199.237C222.994 198.942 223.603 198.443 224.032 197.801C224.46 197.16 224.689 196.406 224.689 195.635C224.688 194.601 224.277 193.609 223.545 192.878C222.814 192.147 221.822 191.736 220.787 191.735Z" fill="#E6E6E6"/>
<path d="M245.5 140.714C244.379 140.714 243.304 141.159 242.511 141.951C241.718 142.744 241.273 143.818 241.273 144.939C241.273 146.059 241.718 147.134 242.511 147.926C243.304 148.718 244.379 149.163 245.5 149.163H305.981C307.102 149.163 308.177 148.718 308.97 147.926C309.762 147.134 310.208 146.059 310.208 144.939C310.208 143.818 309.762 142.744 308.97 141.951C308.177 141.159 307.102 140.714 305.981 140.714H245.5Z" fill="#E6E6E6"/>
<path d="M245.5 157.613C244.379 157.613 243.304 158.058 242.511 158.85C241.718 159.642 241.273 160.717 241.273 161.837C241.273 162.958 241.718 164.032 242.511 164.825C243.304 165.617 244.379 166.062 245.5 166.062H305.981C307.102 166.062 308.177 165.617 308.97 164.825C309.762 164.032 310.208 162.958 310.208 161.837C310.208 160.717 309.762 159.642 308.97 158.85C308.177 158.058 307.102 157.613 305.981 157.613H245.5Z" fill="#E6E6E6"/>
<path d="M245.5 174.511C244.379 174.511 243.304 174.956 242.511 175.749C241.718 176.541 241.273 177.615 241.273 178.736C241.273 179.856 241.718 180.931 242.511 181.723C243.304 182.515 244.379 182.961 245.5 182.961H305.981C307.102 182.961 308.177 182.515 308.97 181.723C309.762 180.931 310.208 179.856 310.208 178.736C310.208 177.615 309.762 176.541 308.97 175.749C308.177 174.956 307.102 174.511 305.981 174.511H245.5Z" fill="#E6E6E6"/>
<path d="M245.5 191.41C244.379 191.41 243.304 191.855 242.511 192.648C241.718 193.44 241.273 194.514 241.273 195.635C241.273 196.755 241.718 197.83 242.511 198.622C243.304 199.414 244.379 199.86 245.5 199.86H305.981C307.102 199.86 308.177 199.414 308.97 198.622C309.762 197.83 310.208 196.755 310.208 195.635C310.208 194.514 309.762 193.44 308.97 192.648C308.177 191.855 307.102 191.41 305.981 191.41H245.5Z" fill="#E6E6E6"/>
<path d="M52.109 96.1924C50.9879 96.1924 49.9127 96.6375 49.12 97.4298C48.3272 98.222 47.8819 99.2966 47.8819 100.417C47.8819 101.538 48.3272 102.612 49.12 103.404C49.9127 104.197 50.9879 104.642 52.109 104.642H124.296C125.417 104.642 126.492 104.197 127.285 103.404C128.078 102.612 128.523 101.538 128.523 100.417C128.523 99.2966 128.078 98.222 127.285 97.4298C126.492 96.6375 125.417 96.1924 124.296 96.1924H52.109Z" fill="#E6E6E6"/>
<path d="M52.109 42.2466C50.9879 42.2466 49.9127 42.6917 49.12 43.484C48.3272 44.2762 47.8819 45.3508 47.8819 46.4713C47.8819 47.5917 48.3272 48.6663 49.12 49.4586C49.9127 50.2508 50.9879 50.6959 52.109 50.6959H124.296C125.417 50.6959 126.492 50.2508 127.285 49.4586C128.078 48.6663 128.523 47.5917 128.523 46.4713C128.523 45.3508 128.078 44.2762 127.285 43.484C126.492 42.6917 125.417 42.2466 124.296 42.2466H52.109Z" fill="#F9A826"/>
<path d="M136.168 97.7031C136.111 97.7031 136.055 97.7181 136.005 97.7466C135.956 97.7752 135.915 97.8162 135.886 97.8656C135.858 97.915 135.843 97.971 135.843 98.0281C135.843 98.0851 135.858 98.1412 135.886 98.1906L138.646 102.968C138.675 103.018 138.716 103.059 138.766 103.087C138.815 103.116 138.871 103.131 138.928 103.131C138.985 103.131 139.041 103.116 139.091 103.087C139.14 103.059 139.181 103.018 139.21 102.968L141.97 98.1906C141.998 98.1412 142.013 98.0851 142.013 98.0281C142.013 97.971 141.998 97.915 141.97 97.8656C141.941 97.8162 141.9 97.7752 141.851 97.7466C141.801 97.7181 141.745 97.7031 141.688 97.7031H136.168Z" fill="#F9A826"/>
<path d="M220.545 96.1924C219.424 96.1924 218.348 96.6375 217.556 97.4298C216.763 98.222 216.318 99.2966 216.318 100.417C216.318 101.538 216.763 102.612 217.556 103.404C218.348 104.197 219.424 104.642 220.545 104.642H292.731C293.853 104.642 294.928 104.197 295.72 103.404C296.513 102.612 296.959 101.538 296.959 100.417C296.959 99.2966 296.513 98.222 295.72 97.4298C294.928 96.6375 293.853 96.1924 292.731 96.1924H220.545Z" fill="#E6E6E6"/>
<path d="M304.604 97.7031C304.547 97.7031 304.491 97.7181 304.441 97.7466C304.392 97.7752 304.351 97.8162 304.322 97.8656C304.294 97.915 304.279 97.971 304.279 98.0281C304.279 98.0851 304.294 98.1412 304.322 98.1906L307.082 102.968C307.111 103.018 307.152 103.059 307.201 103.087C307.251 103.116 307.307 103.131 307.364 103.131C307.421 103.131 307.477 103.116 307.526 103.087C307.576 103.059 307.617 103.018 307.645 102.968L310.406 98.1906C310.434 98.1412 310.449 98.0851 310.449 98.0281C310.449 97.971 310.434 97.915 310.406 97.8656C310.377 97.8162 310.336 97.7752 310.287 97.7466C310.237 97.7181 310.181 97.7031 310.124 97.7031H304.604Z" fill="#F9A826"/>
<path d="M220.787 164.437C222.224 164.437 223.389 163.273 223.389 161.837C223.389 160.401 222.224 159.237 220.787 159.237C219.351 159.237 218.186 160.401 218.186 161.837C218.186 163.273 219.351 164.437 220.787 164.437Z" fill="#F9A826"/>
<path d="M52.0265 181.336C53.4631 181.336 54.6278 180.172 54.6278 178.736C54.6278 177.3 53.4631 176.136 52.0265 176.136C50.5898 176.136 49.4251 177.3 49.4251 178.736C49.4251 180.172 50.5898 181.336 52.0265 181.336Z" fill="#F9A826"/>
<path d="M603.226 369H394.929C394.723 369 394.526 368.918 394.381 368.773C394.236 368.628 394.154 368.431 394.154 368.226C394.154 368.021 394.236 367.824 394.381 367.679C394.526 367.534 394.723 367.452 394.929 367.452H603.226C603.431 367.452 603.628 367.534 603.773 367.679C603.918 367.824 604 368.021 604 368.226C604 368.431 603.918 368.628 603.773 368.773C603.628 368.918 603.431 369 603.226 369Z" fill="#3F3D56"/>
</g>
<defs>
<clipPath id="clip0_41_406">
<rect width="604" height="369" fill="white"/>
</clipPath>
</defs>
</svg>
